<svg width="432" height="429" viewBox="0 0 432 429" fill="none" xmlns="http://www.w3.org/2000/svg">
<g filter="url(#filter0_dd_342_3125)">
<rect x="172" y="319.262" width="72.0392" height="51.4566" rx="8" fill="white"/>
<g filter="url(#filter1_i_342_3125)">
<rect x="175.087" y="322.35" width="65.8644" height="45.2818" rx="6" fill="white"/>
</g>
<g filter="url(#filter2_d_342_3125)">
<rect x="202.874" y="310" width="10.2913" height="19.5535" rx="5.14566" fill="white"/>
</g>
<ellipse cx="207.505" cy="343.447" rx="7.71848" ry="7.71849" fill="url(#paint0_linear_342_3125)"/>
<path fill-rule="evenodd" clip-rule="evenodd" d="M200.454 352.278C196.584 352.839 193.612 356.169 193.612 360.194V367.631H221.398V360.194C221.398 356.169 218.426 352.839 214.556 352.278C212.777 354.129 210.276 355.282 207.505 355.282C204.735 355.282 202.233 354.129 200.454 352.278Z" fill="#AFC6FF"/>
</g>
<g filter="url(#filter3_dd_342_3125)">
<rect x="313" y="185.712" width="78.5882" height="53.4837" rx="8" fill="white"/>
</g>
<circle cx="334.284" cy="204.814" r="7.09477" fill="#EEE5FF"/>
<path d="M328.015 212.579C324.424 213.353 321.732 216.547 321.732 220.37C321.732 223.671 324.408 226.348 327.709 226.348H340.859C344.16 226.348 346.837 223.671 346.837 220.37C346.837 216.547 344.145 213.353 340.554 212.579C338.953 214.192 336.735 215.19 334.284 215.19C331.833 215.19 329.615 214.192 328.015 212.579Z" fill="url(#paint1_linear_342_3125)"/>
<rect x="353.386" y="199.902" width="29.4706" height="4.36601" rx="2.18301" fill="#AFC6FF"/>
<rect x="353.386" y="209.726" width="29.4706" height="4.36601" rx="2.18301" fill="#AFC6FF"/>
<rect x="353.386" y="219.549" width="17.4641" height="4.36601" rx="2.18301" fill="#AFC6FF"/>
<g filter="url(#filter4_dd_342_3125)">
<path fill-rule="evenodd" clip-rule="evenodd" d="M106.039 341.196C106.039 355.664 89.9127 367.392 70.0196 367.392C67.0567 367.392 64.1773 367.132 61.4223 366.641C56.9008 371.764 51.4521 375.033 44.3692 375.033C47.6045 372.26 49.6656 367.007 49.8894 362.923C40.3032 358.215 34 350.241 34 341.196C34 326.728 50.1265 315 70.0196 315C89.9127 315 106.039 326.728 106.039 341.196ZM53.6471 345.562C56.0583 345.562 58.0131 343.607 58.0131 341.196C58.0131 338.785 56.0583 336.83 53.6471 336.83C51.2358 336.83 49.281 338.785 49.281 341.196C49.281 343.607 51.2358 345.562 53.6471 345.562ZM74.3856 341.196C74.3856 343.607 72.4309 345.562 70.0196 345.562C67.6083 345.562 65.6536 343.607 65.6536 341.196C65.6536 338.785 67.6083 336.83 70.0196 336.83C72.4309 336.83 74.3856 338.785 74.3856 341.196ZM86.3922 345.562C88.8034 345.562 90.7582 343.607 90.7582 341.196C90.7582 338.785 88.8034 336.83 86.3922 336.83C83.9809 336.83 82.0261 338.785 82.0261 341.196C82.0261 343.607 83.9809 345.562 86.3922 345.562Z" fill="url(#paint2_radial_342_3125)"/>
</g>
<g filter="url(#filter5_d_342_3125)">
<g filter="url(#filter6_d_342_3125)">
<path d="M82.1516 53.9216V48.7962C82.1516 42.2439 76.8399 36.9321 70.2875 36.9321C63.7351 36.9321 58.4233 42.2439 58.4233 48.7962V67.0196C58.4233 69.486 59.1759 71.7765 60.4639 73.6742V81.8612C55.6591 78.6746 52.4912 73.217 52.4912 67.0196V48.7962C52.4912 38.9677 60.4589 31 70.2875 31C80.1161 31 88.0837 38.9677 88.0837 48.7962V53.9216H82.1516Z" fill="url(#paint3_linear_342_3125)"/>
</g>
<g filter="url(#filter7_d_342_3125)">
<path fill-rule="evenodd" clip-rule="evenodd" d="M51.732 62.2739C46.9095 62.2739 43 66.1834 43 71.006V91.5072C43 96.3298 46.9095 100.239 51.732 100.239H88.8431C93.6657 100.239 97.5752 96.3298 97.5752 91.5072V71.006C97.5752 66.1834 93.6657 62.2739 88.8431 62.2739H51.732ZM74.4632 77.092C74.4632 78.665 73.586 80.0331 72.2941 80.7339L75.1036 89.8581H65.5419L68.3515 80.7338C67.0596 80.0331 66.1825 78.665 66.1825 77.092C66.1825 74.8054 68.0362 72.9517 70.3229 72.9517C72.6095 72.9517 74.4632 74.8054 74.4632 77.092Z" fill="url(#paint4_radial_342_3125)"/>
</g>
</g>
<g filter="url(#filter8_dd_342_3125)">
<path d="M393 74.6667H380.135L376.324 61.1852L369.176 92L360.124 40L352.5 74.6667H312" stroke="white" stroke-width="4" stroke-linecap="round" stroke-linejoin="round"/>
</g>
<g filter="url(#filter9_dd_342_3125)">
<g filter="url(#filter10_d_342_3125)">
<circle cx="207.58" cy="233.739" r="6.00327" fill="url(#paint5_radial_342_3125)"/>
</g>
<g filter="url(#filter11_d_342_3125)">
<path d="M231.687 225.953C229.58 223.625 225.479 220.189 225.479 208.77C225.479 200.235 219.493 193.361 211.289 191.588V189.26C211.289 187.375 209.737 185.712 207.853 185.712C205.857 185.712 204.305 187.375 204.305 189.26V191.588C196.102 193.361 190.116 200.235 190.116 208.77C190.116 220.189 186.014 223.625 183.908 225.953C183.243 226.618 182.91 227.505 183.021 228.281C183.021 230.166 184.351 231.828 186.568 231.828H229.026C231.243 231.828 232.574 230.166 232.684 228.281C232.684 227.505 232.352 226.618 231.687 225.953Z" fill="url(#paint6_radial_342_3125)"/>
</g>
</g>
<g filter="url(#filter12_dd_342_3125)">
<path d="M349.355 314.962L342.183 329.763L325.963 332.1C323.094 332.545 321.991 336.106 324.087 338.22L335.673 349.683L332.914 365.819C332.473 368.712 335.563 370.938 338.1 369.603L352.555 361.924L366.9 369.603C369.437 370.938 372.527 368.712 372.086 365.819L369.327 349.683L380.913 338.22C383.009 336.106 381.906 332.545 379.037 332.1L362.927 329.763L355.645 314.962C354.431 312.402 350.679 312.291 349.355 314.962Z" fill="url(#paint7_linear_342_3125)"/>
</g>
<g filter="url(#filter13_dd_342_3125)">
<path d="M103.699 158.736C103.699 157.777 102.922 157 101.963 157C101.005 157 100.228 157.777 100.228 158.736C100.228 162.176 99.4146 166.065 97.257 169.356C95.1284 172.602 91.6213 175.379 85.983 176.566C83.7087 177.045 81.6412 177.633 79.7682 178.298C77.1567 174.53 72.671 170.249 67.0006 167.352C60.9684 164.27 53.4957 162.71 45.4866 165.134C44.569 165.411 44.0501 166.38 44.3278 167.298C44.6054 168.215 45.5743 168.734 46.4919 168.457C53.4594 166.349 60.0006 167.674 65.4212 170.444C70.247 172.909 74.1058 176.482 76.4557 179.637C69.3752 182.879 65.8099 187.162 64.7663 189.771C64.4102 190.661 64.8432 191.671 65.7333 192.027C66.6235 192.383 67.6337 191.95 67.9897 191.06C68.8683 188.864 73.8841 182.661 86.6982 179.963C93.211 178.592 97.5153 175.293 100.16 171.259C102.776 167.269 103.699 162.673 103.699 158.736Z" fill="white"/>
</g>
<path d="M48.6938 199.219C48.6938 195.862 50.3781 192.741 53.2916 191.513C56.4746 190.172 60.924 188.734 65.3735 188.734C69.8484 188.734 74.4645 190.188 77.7819 191.536C80.7794 192.754 82.5437 195.933 82.5437 199.37V201.322C82.5437 205.449 80.014 209.097 76.2742 210.069C72.5975 211.024 68.1446 212.006 65.3735 212.006C62.6398 212.006 58.3953 211.05 54.8722 210.107C51.1753 209.118 48.6938 205.494 48.6938 201.407V199.219Z" fill="white"/>
<path d="M46.6606 180.096C51.1091 180.359 59.4734 178.101 57.3431 166.968C52.8946 166.705 44.5303 168.963 46.6606 180.096Z" fill="white"/>
<g filter="url(#filter14_dd_342_3125)">
<path d="M47.6423 200.864C44.2358 201.912 42.0757 205.284 42.0757 209.033V209.723C42.0757 211.146 42.3849 212.506 42.9435 213.717V212.523H89.3783C89.6607 211.619 89.8122 210.654 89.8122 209.657V209.163C89.8122 205.35 87.5796 201.934 84.1049 200.903C79.3833 199.503 72.3758 197.85 65.598 197.85C58.8832 197.85 52.1683 199.472 47.6423 200.864Z" fill="white"/>
</g>
<g filter="url(#filter15_dd_342_3125)">
<path d="M40.5108 230.865C40.2953 231.642 40.2094 232.463 40.2749 233.307C40.4369 235.389 40.9061 237.677 42.0755 239.119C44.6793 242.328 52.9247 246.914 65.5727 246.914C78.2206 246.914 86.7742 242.328 89.812 239.119C91.2211 237.63 91.6964 235.238 91.8011 233.102C91.8391 232.326 91.742 231.575 91.5303 230.865H40.5108Z" fill="white"/>
</g>
<g filter="url(#filter16_dd_342_3125)">
<path fill-rule="evenodd" clip-rule="evenodd" d="M41.8425 212.551C38.3032 213.565 36 217.015 36 220.889V223.806C36 227.757 38.405 231.238 42.0647 232.053C47.2146 233.201 55.377 234.533 65.5098 234.533C75.7649 234.533 84.2901 233.168 89.6727 232.012C93.4029 231.211 95.8876 227.682 95.8876 223.66V221.012C95.8876 217.077 93.5138 213.587 89.9108 212.594C84.0178 210.97 74.5991 208.855 65.5098 208.855C56.5014 208.855 47.493 210.933 41.8425 212.551ZM66.1475 225.621C68.7765 225.621 70.9077 223.369 70.9077 220.591C70.9077 217.814 68.7765 215.562 66.1475 215.562C63.5186 215.562 61.3874 217.814 61.3874 220.591C61.3874 223.369 63.5186 225.621 66.1475 225.621Z" fill="white"/>
</g>
<rect x="175.274" y="48.7319" width="65.4902" height="37.1111" rx="6" fill="url(#paint8_linear_342_3125)"/>
<rect x="175.274" y="56.3726" width="65.4902" height="30.5621" rx="6" fill="#CED5FF"/>
<g filter="url(#filter17_dd_342_3125)">
<path fill-rule="evenodd" clip-rule="evenodd" d="M180.732 40C175.909 40 172 43.9095 172 48.732V83.6601C172 88.4827 175.909 92.3922 180.732 92.3922H235.307C240.13 92.3922 244.039 88.4827 244.039 83.6601V48.732C244.039 43.9095 240.13 40 235.307 40H180.732ZM175.275 49.5146C175.275 45.8977 178.207 42.9656 181.824 42.9656H234.216C237.833 42.9656 240.765 45.8977 240.765 49.5146V63.7248H214.544C214.268 66.4959 211.697 68.6674 208.565 68.6674C205.434 68.6674 202.862 66.4959 202.587 63.7248H175.275V49.5146Z" fill="white"/>
</g>
<g filter="url(#filter18_dd_342_3125)">
<circle cx="224.938" cy="92.9379" r="10.3693" fill="white"/>
<g filter="url(#filter19_i_342_3125)">
<circle cx="224.938" cy="92.9378" r="7.09477" fill="white"/>
</g>
</g>
<defs>
<filter id="filter0_dd_342_3125" x="132" y="288" width="152.039" height="140.719" filterUnits="userSpaceOnUse" color-interpolation-filters="sRGB">
<feFlood flood-opacity="0" result="BackgroundImageFix"/>
<feColorMatrix in="SourceAlpha" type="matrix" values="0 0 0 0 0 0 0 0 0 0 0 0 0 0 0 0 0 0 127 0" result="hardAlpha"/>
<feOffset dy="18"/>
<feGaussianBlur stdDeviation="20"/>
<feColorMatrix type="matrix" values="0 0 0 0 0.352941 0 0 0 0 0.156863 0 0 0 0 0.776471 0 0 0 0.25 0"/>
<feBlend mode="normal" in2="BackgroundImageFix" result="effect1_dropShadow_342_3125"/>
<feColorMatrix in="SourceAlpha" type="matrix" values="0 0 0 0 0 0 0 0 0 0 0 0 0 0 0 0 0 0 127 0" result="hardAlpha"/>
<feOffset dy="4"/>
<feGaussianBlur stdDeviation="2.5"/>
<feColorMatrix type="matrix" values="0 0 0 0 0.709976 0 0 0 0 0.625937 0 0 0 0 0.899063 0 0 0 0.2 0"/>
<feBlend mode="normal" in2="effect1_dropShadow_342_3125" result="effect2_dropShadow_342_3125"/>
<feBlend mode="normal" in="SourceGraphic" in2="effect2_dropShadow_342_3125" result="shape"/>
</filter>
<filter id="filter1_i_342_3125" x="175.087" y="322.35" width="65.8643" height="47.2817" filterUnits="userSpaceOnUse" color-interpolation-filters="sRGB">
<feFlood flood-opacity="0" result="BackgroundImageFix"/>
<feBlend mode="normal" in="SourceGraphic" in2="BackgroundImageFix" result="shape"/>
<feColorMatrix in="SourceAlpha" type="matrix" values="0 0 0 0 0 0 0 0 0 0 0 0 0 0 0 0 0 0 127 0" result="hardAlpha"/>
<feOffset dy="2"/>
<feGaussianBlur stdDeviation="2.5"/>
<feComposite in2="hardAlpha" operator="arithmetic" k2="-1" k3="1"/>
<feColorMatrix type="matrix" values="0 0 0 0 0.352942 0 0 0 0 0.156863 0 0 0 0 0.776471 0 0 0 0.13 0"/>
<feBlend mode="normal" in2="shape" result="effect1_innerShadow_342_3125"/>
</filter>
<filter id="filter2_d_342_3125" x="198.874" y="310" width="18.2915" height="27.5535" filterUnits="userSpaceOnUse" color-interpolation-filters="sRGB">
<feFlood flood-opacity="0" result="BackgroundImageFix"/>
<feColorMatrix in="SourceAlpha" type="matrix" values="0 0 0 0 0 0 0 0 0 0 0 0 0 0 0 0 0 0 127 0" result="hardAlpha"/>
<feOffset dy="4"/>
<feGaussianBlur stdDeviation="2"/>
<feColorMatrix type="matrix" values="0 0 0 0 0.352941 0 0 0 0 0.156863 0 0 0 0 0.776471 0 0 0 0.15 0"/>
<feBlend mode="normal" in2="BackgroundImageFix" result="effect1_dropShadow_342_3125"/>
<feBlend mode="normal" in="SourceGraphic" in2="effect1_dropShadow_342_3125" result="shape"/>
</filter>
<filter id="filter3_dd_342_3125" x="273" y="163.712" width="158.588" height="133.484" filterUnits="userSpaceOnUse" color-interpolation-filters="sRGB">
<feFlood flood-opacity="0" result="BackgroundImageFix"/>
<feColorMatrix in="SourceAlpha" type="matrix" values="0 0 0 0 0 0 0 0 0 0 0 0 0 0 0 0 0 0 127 0" result="hardAlpha"/>
<feOffset dy="18"/>
<feGaussianBlur stdDeviation="20"/>
<feColorMatrix type="matrix" values="0 0 0 0 0.352941 0 0 0 0 0.156863 0 0 0 0 0.776471 0 0 0 0.25 0"/>
<feBlend mode="normal" in2="BackgroundImageFix" result="effect1_dropShadow_342_3125"/>
<feColorMatrix in="SourceAlpha" type="matrix" values="0 0 0 0 0 0 0 0 0 0 0 0 0 0 0 0 0 0 127 0" result="hardAlpha"/>
<feOffset dy="4"/>
<feGaussianBlur stdDeviation="2.5"/>
<feColorMatrix type="matrix" values="0 0 0 0 0.709976 0 0 0 0 0.625937 0 0 0 0 0.899063 0 0 0 0.2 0"/>
<feBlend mode="normal" in2="effect1_dropShadow_342_3125" result="effect2_dropShadow_342_3125"/>
<feBlend mode="normal" in="SourceGraphic" in2="effect2_dropShadow_342_3125" result="shape"/>
</filter>
<filter id="filter4_dd_342_3125" x="8" y="295" width="124.039" height="112.033" filterUnits="userSpaceOnUse" color-interpolation-filters="sRGB">
<feFlood flood-opacity="0" result="BackgroundImageFix"/>
<feColorMatrix in="SourceAlpha" type="matrix" values="0 0 0 0 0 0 0 0 0 0 0 0 0 0 0 0 0 0 127 0" result="hardAlpha"/>
<feOffset dy="6"/>
<feGaussianBlur stdDeviation="13"/>
<feColorMatrix type="matrix" values="0 0 0 0 0.109804 0 0 0 0 0.25098 0 0 0 0 0.462745 0 0 0 0.1 0"/>
<feBlend mode="normal" in2="BackgroundImageFix" result="effect1_dropShadow_342_3125"/>
<feColorMatrix in="SourceAlpha" type="matrix" values="0 0 0 0 0 0 0 0 0 0 0 0 0 0 0 0 0 0 127 0" result="hardAlpha"/>
<feOffset dy="4"/>
<feGaussianBlur stdDeviation="3"/>
<feColorMatrix type="matrix" values="0 0 0 0 0.109804 0 0 0 0 0.25098 0 0 0 0 0.462745 0 0 0 0.17 0"/>
<feBlend mode="normal" in2="effect1_dropShadow_342_3125" result="effect2_dropShadow_342_3125"/>
<feBlend mode="normal" in="SourceGraphic" in2="effect2_dropShadow_342_3125" result="shape"/>
</filter>
<filter id="filter5_d_342_3125" x="17" y="11" width="106.575" height="121.239" filterUnits="userSpaceOnUse" color-interpolation-filters="sRGB">
<feFlood flood-opacity="0" result="BackgroundImageFix"/>
<feColorMatrix in="SourceAlpha" type="matrix" values="0 0 0 0 0 0 0 0 0 0 0 0 0 0 0 0 0 0 127 0" result="hardAlpha"/>
<feOffset dy="6"/>
<feGaussianBlur stdDeviation="13"/>
<feColorMatrix type="matrix" values="0 0 0 0 0.109804 0 0 0 0 0.25098 0 0 0 0 0.462745 0 0 0 0.15 0"/>
<feBlend mode="normal" in2="BackgroundImageFix" result="effect1_dropShadow_342_3125"/>
<feBlend mode="normal" in="SourceGraphic" in2="effect1_dropShadow_342_3125" result="shape"/>
</filter>
<filter id="filter6_d_342_3125" x="46.4912" y="29" width="47.5923" height="62.8613" filterUnits="userSpaceOnUse" color-interpolation-filters="sRGB">
<feFlood flood-opacity="0" result="BackgroundImageFix"/>
<feColorMatrix in="SourceAlpha" type="matrix" values="0 0 0 0 0 0 0 0 0 0 0 0 0 0 0 0 0 0 127 0" result="hardAlpha"/>
<feOffset dy="4"/>
<feGaussianBlur stdDeviation="3"/>
<feColorMatrix type="matrix" values="0 0 0 0 0.109804 0 0 0 0 0.25098 0 0 0 0 0.462745 0 0 0 0.15 0"/>
<feBlend mode="normal" in2="BackgroundImageFix" result="effect1_dropShadow_342_3125"/>
<feBlend mode="normal" in="SourceGraphic" in2="effect1_dropShadow_342_3125" result="shape"/>
</filter>
<filter id="filter7_d_342_3125" x="37" y="60.2739" width="66.5752" height="49.9653" filterUnits="userSpaceOnUse" color-interpolation-filters="sRGB">
<feFlood flood-opacity="0" result="BackgroundImageFix"/>
<feColorMatrix in="SourceAlpha" type="matrix" values="0 0 0 0 0 0 0 0 0 0 0 0 0 0 0 0 0 0 127 0" result="hardAlpha"/>
<feOffset dy="4"/>
<feGaussianBlur stdDeviation="3"/>
<feColorMatrix type="matrix" values="0 0 0 0 0.109804 0 0 0 0 0.25098 0 0 0 0 0.462745 0 0 0 0.15 0"/>
<feBlend mode="normal" in2="BackgroundImageFix" result="effect1_dropShadow_342_3125"/>
<feBlend mode="normal" in="SourceGraphic" in2="effect1_dropShadow_342_3125" result="shape"/>
</filter>
<filter id="filter8_dd_342_3125" x="284" y="18" width="137" height="108" filterUnits="userSpaceOnUse" color-interpolation-filters="sRGB">
<feFlood flood-opacity="0" result="BackgroundImageFix"/>
<feColorMatrix in="SourceAlpha" type="matrix" values="0 0 0 0 0 0 0 0 0 0 0 0 0 0 0 0 0 0 127 0" result="hardAlpha"/>
<feOffset dy="6"/>
<feGaussianBlur stdDeviation="13"/>
<feColorMatrix type="matrix" values="0 0 0 0 0.109804 0 0 0 0 0.25098 0 0 0 0 0.462745 0 0 0 0.15 0"/>
<feBlend mode="normal" in2="BackgroundImageFix" result="effect1_dropShadow_342_3125"/>
<feColorMatrix in="SourceAlpha" type="matrix" values="0 0 0 0 0 0 0 0 0 0 0 0 0 0 0 0 0 0 127 0" result="hardAlpha"/>
<feOffset dy="4"/>
<feGaussianBlur stdDeviation="3"/>
<feColorMatrix type="matrix" values="0 0 0 0 0.109804 0 0 0 0 0.25098 0 0 0 0 0.462745 0 0 0 0.15 0"/>
<feBlend mode="normal" in2="effect1_dropShadow_342_3125" result="effect2_dropShadow_342_3125"/>
<feBlend mode="normal" in="SourceGraphic" in2="effect2_dropShadow_342_3125" result="shape"/>
</filter>
<filter id="filter9_dd_342_3125" x="153" y="149.712" width="109.685" height="114.03" filterUnits="userSpaceOnUse" color-interpolation-filters="sRGB">
<feFlood flood-opacity="0" result="BackgroundImageFix"/>
<feColorMatrix in="SourceAlpha" type="matrix" values="0 0 0 0 0 0 0 0 0 0 0 0 0 0 0 0 0 0 127 0" result="hardAlpha"/>
<feOffset dy="-6"/>
<feGaussianBlur stdDeviation="15"/>
<feColorMatrix type="matrix" values="0 0 0 0 0.109804 0 0 0 0 0.25098 0 0 0 0 0.462745 0 0 0 0.1 0"/>
<feBlend mode="normal" in2="BackgroundImageFix" result="effect1_dropShadow_342_3125"/>
<feColorMatrix in="SourceAlpha" type="matrix" values="0 0 0 0 0 0 0 0 0 0 0 0 0 0 0 0 0 0 127 0" result="hardAlpha"/>
<feOffset dy="2"/>
<feGaussianBlur stdDeviation="3"/>
<feColorMatrix type="matrix" values="0 0 0 0 0.109804 0 0 0 0 0.25098 0 0 0 0 0.462745 0 0 0 0.1 0"/>
<feBlend mode="normal" in2="effect1_dropShadow_342_3125" result="effect2_dropShadow_342_3125"/>
<feBlend mode="normal" in="SourceGraphic" in2="effect2_dropShadow_342_3125" result="shape"/>
</filter>
<filter id="filter10_d_342_3125" x="195.577" y="225.735" width="24.0063" height="24.0066" filterUnits="userSpaceOnUse" color-interpolation-filters="sRGB">
<feFlood flood-opacity="0" result="BackgroundImageFix"/>
<feColorMatrix in="SourceAlpha" type="matrix" values="0 0 0 0 0 0 0 0 0 0 0 0 0 0 0 0 0 0 127 0" result="hardAlpha"/>
<feOffset dy="4"/>
<feGaussianBlur stdDeviation="3"/>
<feColorMatrix type="matrix" values="0 0 0 0 0.109804 0 0 0 0 0.25098 0 0 0 0 0.462745 0 0 0 0.2 0"/>
<feBlend mode="normal" in2="BackgroundImageFix" result="effect1_dropShadow_342_3125"/>
<feBlend mode="normal" in="SourceGraphic" in2="effect1_dropShadow_342_3125" result="shape"/>
</filter>
<filter id="filter11_d_342_3125" x="177" y="183.712" width="61.6846" height="58.116" filterUnits="userSpaceOnUse" color-interpolation-filters="sRGB">
<feFlood flood-opacity="0" result="BackgroundImageFix"/>
<feColorMatrix in="SourceAlpha" type="matrix" values="0 0 0 0 0 0 0 0 0 0 0 0 0 0 0 0 0 0 127 0" result="hardAlpha"/>
<feOffset dy="4"/>
<feGaussianBlur stdDeviation="3"/>
<feColorMatrix type="matrix" values="0 0 0 0 0.109804 0 0 0 0 0.25098 0 0 0 0 0.462745 0 0 0 0.14 0"/>
<feBlend mode="normal" in2="BackgroundImageFix" result="effect1_dropShadow_342_3125"/>
<feBlend mode="normal" in="SourceGraphic" in2="effect1_dropShadow_342_3125" result="shape"/>
</filter>
<filter id="filter12_dd_342_3125" x="297" y="293" width="111" height="109" filterUnits="userSpaceOnUse" color-interpolation-filters="sRGB">
<feFlood flood-opacity="0" result="BackgroundImageFix"/>
<feColorMatrix in="SourceAlpha" type="matrix" values="0 0 0 0 0 0 0 0 0 0 0 0 0 0 0 0 0 0 127 0" result="hardAlpha"/>
<feOffset dy="6"/>
<feGaussianBlur stdDeviation="13"/>
<feColorMatrix type="matrix" values="0 0 0 0 0.109804 0 0 0 0 0.25098 0 0 0 0 0.462745 0 0 0 0.14 0"/>
<feBlend mode="normal" in2="BackgroundImageFix" result="effect1_dropShadow_342_3125"/>
<feColorMatrix in="SourceAlpha" type="matrix" values="0 0 0 0 0 0 0 0 0 0 0 0 0 0 0 0 0 0 127 0" result="hardAlpha"/>
<feOffset dy="2"/>
<feGaussianBlur stdDeviation="2"/>
<feColorMatrix type="matrix" values="0 0 0 0 0.109804 0 0 0 0 0.25098 0 0 0 0 0.462745 0 0 0 0.15 0"/>
<feBlend mode="normal" in2="effect1_dropShadow_342_3125" result="effect2_dropShadow_342_3125"/>
<feBlend mode="normal" in="SourceGraphic" in2="effect2_dropShadow_342_3125" result="shape"/>
</filter>
<filter id="filter13_dd_342_3125" x="4.25293" y="117" width="139.446" height="115.152" filterUnits="userSpaceOnUse" color-interpolation-filters="sRGB">
<feFlood flood-opacity="0" result="BackgroundImageFix"/>
<feColorMatrix in="SourceAlpha" type="matrix" values="0 0 0 0 0 0 0 0 0 0 0 0 0 0 0 0 0 0 127 0" result="hardAlpha"/>
<feOffset/>
<feGaussianBlur stdDeviation="20"/>
<feColorMatrix type="matrix" values="0 0 0 0 0.352941 0 0 0 0 0.156863 0 0 0 0 0.776471 0 0 0 0.35 0"/>
<feBlend mode="normal" in2="BackgroundImageFix" result="effect1_dropShadow_342_3125"/>
<feColorMatrix in="SourceAlpha" type="matrix" values="0 0 0 0 0 0 0 0 0 0 0 0 0 0 0 0 0 0 127 0" result="hardAlpha"/>
<feOffset dy="4"/>
<feGaussianBlur stdDeviation="2.5"/>
<feColorMatrix type="matrix" values="0 0 0 0 0.709976 0 0 0 0 0.625937 0 0 0 0 0.899063 0 0 0 0.2 0"/>
<feBlend mode="normal" in2="effect1_dropShadow_342_3125" result="effect2_dropShadow_342_3125"/>
<feBlend mode="normal" in="SourceGraphic" in2="effect2_dropShadow_342_3125" result="shape"/>
</filter>
<filter id="filter14_dd_342_3125" x="2.07568" y="168.85" width="127.736" height="95.8672" filterUnits="userSpaceOnUse" color-interpolation-filters="sRGB">
<feFlood flood-opacity="0" result="BackgroundImageFix"/>
<feColorMatrix in="SourceAlpha" type="matrix" values="0 0 0 0 0 0 0 0 0 0 0 0 0 0 0 0 0 0 127 0" result="hardAlpha"/>
<feOffset dy="11"/>
<feGaussianBlur stdDeviation="20"/>
<feColorMatrix type="matrix" values="0 0 0 0 0.352941 0 0 0 0 0.156863 0 0 0 0 0.776471 0 0 0 0.35 0"/>
<feBlend mode="normal" in2="BackgroundImageFix" result="effect1_dropShadow_342_3125"/>
<feColorMatrix in="SourceAlpha" type="matrix" values="0 0 0 0 0 0 0 0 0 0 0 0 0 0 0 0 0 0 127 0" result="hardAlpha"/>
<feOffset dy="4"/>
<feGaussianBlur stdDeviation="2.5"/>
<feColorMatrix type="matrix" values="0 0 0 0 0.709976 0 0 0 0 0.625937 0 0 0 0 0.899063 0 0 0 0.2 0"/>
<feBlend mode="normal" in2="effect1_dropShadow_342_3125" result="effect2_dropShadow_342_3125"/>
<feBlend mode="normal" in="SourceGraphic" in2="effect2_dropShadow_342_3125" result="shape"/>
</filter>
<filter id="filter15_dd_342_3125" x="0.253418" y="190.865" width="131.556" height="96.0488" filterUnits="userSpaceOnUse" color-interpolation-filters="sRGB">
<feFlood flood-opacity="0" result="BackgroundImageFix"/>
<feColorMatrix in="SourceAlpha" type="matrix" values="0 0 0 0 0 0 0 0 0 0 0 0 0 0 0 0 0 0 127 0" result="hardAlpha"/>
<feOffset/>
<feGaussianBlur stdDeviation="20"/>
<feColorMatrix type="matrix" values="0 0 0 0 0.352941 0 0 0 0 0.156863 0 0 0 0 0.776471 0 0 0 0.35 0"/>
<feBlend mode="normal" in2="BackgroundImageFix" result="effect1_dropShadow_342_3125"/>
<feColorMatrix in="SourceAlpha" type="matrix" values="0 0 0 0 0 0 0 0 0 0 0 0 0 0 0 0 0 0 127 0" result="hardAlpha"/>
<feOffset dy="4"/>
<feGaussianBlur stdDeviation="2.5"/>
<feColorMatrix type="matrix" values="0 0 0 0 0.709976 0 0 0 0 0.625937 0 0 0 0 0.899063 0 0 0 0.2 0"/>
<feBlend mode="normal" in2="effect1_dropShadow_342_3125" result="effect2_dropShadow_342_3125"/>
<feBlend mode="normal" in="SourceGraphic" in2="effect2_dropShadow_342_3125" result="shape"/>
</filter>
<filter id="filter16_dd_342_3125" x="26.5" y="199.355" width="78.8877" height="44.678" filterUnits="userSpaceOnUse" color-interpolation-filters="sRGB">
<feFlood flood-opacity="0" result="BackgroundImageFix"/>
<feColorMatrix in="SourceAlpha" type="matrix" values="0 0 0 0 0 0 0 0 0 0 0 0 0 0 0 0 0 0 127 0" result="hardAlpha"/>
<feOffset/>
<feGaussianBlur stdDeviation="4.75"/>
<feColorMatrix type="matrix" values="0 0 0 0 0.352941 0 0 0 0 0.156863 0 0 0 0 0.776471 0 0 0 0.08 0"/>
<feBlend mode="normal" in2="BackgroundImageFix" result="effect1_dropShadow_342_3125"/>
<feColorMatrix in="SourceAlpha" type="matrix" values="0 0 0 0 0 0 0 0 0 0 0 0 0 0 0 0 0 0 127 0" result="hardAlpha"/>
<feOffset dy="4"/>
<feGaussianBlur stdDeviation="2.5"/>
<feColorMatrix type="matrix" values="0 0 0 0 0.709976 0 0 0 0 0.625937 0 0 0 0 0.899063 0 0 0 0.2 0"/>
<feBlend mode="normal" in2="effect1_dropShadow_342_3125" result="effect2_dropShadow_342_3125"/>
<feBlend mode="normal" in="SourceGraphic" in2="effect2_dropShadow_342_3125" result="shape"/>
</filter>
<filter id="filter17_dd_342_3125" x="132" y="0" width="152.039" height="132.392" filterUnits="userSpaceOnUse" color-interpolation-filters="sRGB">
<feFlood flood-opacity="0" result="BackgroundImageFix"/>
<feColorMatrix in="SourceAlpha" type="matrix" values="0 0 0 0 0 0 0 0 0 0 0 0 0 0 0 0 0 0 127 0" result="hardAlpha"/>
<feOffset/>
<feGaussianBlur stdDeviation="20"/>
<feColorMatrix type="matrix" values="0 0 0 0 0.352941 0 0 0 0 0.156863 0 0 0 0 0.776471 0 0 0 0.35 0"/>
<feBlend mode="normal" in2="BackgroundImageFix" result="effect1_dropShadow_342_3125"/>
<feColorMatrix in="SourceAlpha" type="matrix" values="0 0 0 0 0 0 0 0 0 0 0 0 0 0 0 0 0 0 127 0" result="hardAlpha"/>
<feOffset dy="4"/>
<feGaussianBlur stdDeviation="2.5"/>
<feColorMatrix type="matrix" values="0 0 0 0 0.709976 0 0 0 0 0.625937 0 0 0 0 0.899063 0 0 0 0.2 0"/>
<feBlend mode="normal" in2="effect1_dropShadow_342_3125" result="effect2_dropShadow_342_3125"/>
<feBlend mode="normal" in="SourceGraphic" in2="effect2_dropShadow_342_3125" result="shape"/>
</filter>
<filter id="filter18_dd_342_3125" x="174.569" y="39.5686" width="100.739" height="100.739" filterUnits="userSpaceOnUse" color-interpolation-filters="sRGB">
<feFlood flood-opacity="0" result="BackgroundImageFix"/>
<feColorMatrix in="SourceAlpha" type="matrix" values="0 0 0 0 0 0 0 0 0 0 0 0 0 0 0 0 0 0 127 0" result="hardAlpha"/>
<feOffset dy="-3"/>
<feGaussianBlur stdDeviation="20"/>
<feColorMatrix type="matrix" values="0 0 0 0 0.352941 0 0 0 0 0.156863 0 0 0 0 0.776471 0 0 0 0.5 0"/>
<feBlend mode="normal" in2="BackgroundImageFix" result="effect1_dropShadow_342_3125"/>
<feColorMatrix in="SourceAlpha" type="matrix" values="0 0 0 0 0 0 0 0 0 0 0 0 0 0 0 0 0 0 127 0" result="hardAlpha"/>
<feOffset dy="4"/>
<feGaussianBlur stdDeviation="2.5"/>
<feColorMatrix type="matrix" values="0 0 0 0 0.709976 0 0 0 0 0.625937 0 0 0 0 0.899063 0 0 0 0.2 0"/>
<feBlend mode="normal" in2="effect1_dropShadow_342_3125" result="effect2_dropShadow_342_3125"/>
<feBlend mode="normal" in="SourceGraphic" in2="effect2_dropShadow_342_3125" result="shape"/>
</filter>
<filter id="filter19_i_342_3125" x="217.843" y="85.843" width="14.1895" height="14.1895" filterUnits="userSpaceOnUse" color-interpolation-filters="sRGB">
<feFlood flood-opacity="0" result="BackgroundImageFix"/>
<feBlend mode="normal" in="SourceGraphic" in2="BackgroundImageFix" result="shape"/>
<feColorMatrix in="SourceAlpha" type="matrix" values="0 0 0 0 0 0 0 0 0 0 0 0 0 0 0 0 0 0 127 0" result="hardAlpha"/>
<feOffset/>
<feGaussianBlur stdDeviation="2.5"/>
<feComposite in2="hardAlpha" operator="arithmetic" k2="-1" k3="1"/>
<feColorMatrix type="matrix" values="0 0 0 0 0.352942 0 0 0 0 0.156863 0 0 0 0 0.776471 0 0 0 0.13 0"/>
<feBlend mode="normal" in2="shape" result="effect1_innerShadow_342_3125"/>
</filter>
<linearGradient id="paint0_linear_342_3125" x1="208.02" y1="358.572" x2="207.505" y2="330.583" gradientUnits="userSpaceOnUse">
<stop stop-color="#9673E3"/>
<stop offset="1" stop-color="#EDE5FF"/>
</linearGradient>
<linearGradient id="paint1_linear_342_3125" x1="334.284" y1="215.729" x2="333.738" y2="228.281" gradientUnits="userSpaceOnUse">
<stop stop-color="#EDE5FF"/>
<stop offset="1" stop-color="white"/>
</linearGradient>
<radialGradient id="paint2_radial_342_3125" cx="0" cy="0" r="1" gradientUnits="userSpaceOnUse" gradientTransform="translate(81.4804 315) rotate(130.301) scale(56.5321 67.8385)">
<stop stop-color="white"/>
<stop offset="1" stop-color="#F7F7F7"/>
</radialGradient>
<linearGradient id="paint3_linear_342_3125" x1="70.2875" y1="38.8303" x2="72.5421" y2="59.5706" gradientUnits="userSpaceOnUse">
<stop stop-color="white"/>
<stop offset="1" stop-color="#F7F7F7"/>
</linearGradient>
<radialGradient id="paint4_radial_342_3125" cx="0" cy="0" r="1" gradientUnits="userSpaceOnUse" gradientTransform="translate(78.97 62.2739) rotate(135.453) scale(38.8688 47.2711)">
<stop stop-color="white"/>
<stop offset="1" stop-color="#F7F7F7"/>
</radialGradient>
<radialGradient id="paint5_radial_342_3125" cx="0" cy="0" r="1" gradientUnits="userSpaceOnUse" gradientTransform="translate(209.49 227.735) rotate(119.866) scale(12.2381 12.8562)">
<stop stop-color="white"/>
<stop offset="1" stop-color="#F7F7F7"/>
</radialGradient>
<radialGradient id="paint6_radial_342_3125" cx="0" cy="0" r="1" gradientUnits="userSpaceOnUse" gradientTransform="translate(215.747 185.712) rotate(121.744) scale(47.933 52.1709)">
<stop stop-color="white"/>
<stop offset="1" stop-color="#F7F7F7"/>
</radialGradient>
<linearGradient id="paint7_linear_342_3125" x1="345.222" y1="335.969" x2="341.185" y2="364.992" gradientUnits="userSpaceOnUse">
<stop stop-color="white"/>
<stop offset="1" stop-color="#F7F7F7"/>
</linearGradient>
<linearGradient id="paint8_linear_342_3125" x1="208.02" y1="68.9247" x2="208.02" y2="27.9934" gradientUnits="userSpaceOnUse">
<stop stop-color="#9673E3"/>
<stop offset="1" stop-color="#EDE5FF"/>
</linearGradient>
</defs>
</svg>
