<svg width="3210" height="1825" viewBox="0 0 3210 1825" fill="none" xmlns="http://www.w3.org/2000/svg">
<path d="M428.596 525.17C409.396 534.07 355.496 527.67 308.996 490.87C339.896 504.87 374.596 505.87 404.496 490.57C448.796 467.87 469.696 416.07 460.496 363.47C460.996 365.17 461.496 366.87 461.996 368.57C480.596 434.97 459.996 510.67 428.596 525.17Z" fill="url(#paint0_linear_233_125)"/>
<path d="M404.494 490.57C374.494 505.97 339.894 504.97 308.994 490.87C298.794 482.77 288.994 473.27 279.894 462.07C269.294 449.07 259.794 433.77 252.094 416.07C291.794 415.77 331.794 395.57 356.294 359.37C377.994 327.27 382.694 289.57 372.494 257.17C402.194 270.67 433.494 297.27 452.794 342.27C455.694 348.97 458.294 355.97 460.494 363.47C469.694 416.07 448.694 467.87 404.494 490.57Z" fill="url(#paint1_linear_233_125)"/>
<path d="M372.396 257.17C354.396 249.07 336.996 245.77 323.196 246.07C337.896 283.37 331.396 328.17 303.096 361.77C287.396 380.47 267.096 393.07 245.496 399.27C247.496 405.07 249.696 410.77 251.996 416.07C291.696 415.77 331.696 395.57 356.196 359.37C377.896 327.27 382.696 289.57 372.396 257.17Z" fill="url(#paint2_linear_233_125)"/>
<path d="M487.996 7.16992C487.896 7.16992 487.896 7.16992 487.796 7.16992C482.396 7.16992 466.296 11.3699 429.396 48.9699C403.196 75.7699 379.496 106.37 367.196 124.47C335.296 171.17 300.496 208.17 260.796 237.47C259.596 238.37 259.496 239.37 259.496 239.97C259.496 240.57 259.696 241.57 260.896 242.37L268.696 247.77C269.796 248.57 271.396 248.57 272.596 247.87C277.996 244.67 279.796 243.97 285.496 241.67C287.496 240.87 289.996 239.87 293.396 238.47C309.696 231.67 329.596 230.87 346.996 230.67C365.796 230.47 400.896 227.57 425.096 211.07C463.296 185.07 479.496 141.97 485.896 118.57C488.396 109.17 493.296 85.8699 495.696 62.8699C499.696 24.6699 494.296 12.8699 491.796 9.46992C490.496 7.46992 489.196 7.26992 487.996 7.16992Z" fill="url(#paint3_linear_233_125)"/>
<path d="M215.695 179.77C239.895 177.97 264.395 183.97 285.195 198.47C291.795 192.87 298.095 185.77 302.795 177.47C319.895 147.67 319.395 123.97 306.095 92.17C292.795 60.47 253.295 -3.73005 234.995 0.169951C216.695 4.06995 209.695 67.17 210.495 105.37C211.295 138.37 213.695 162.47 215.695 179.77Z" fill="url(#paint4_linear_233_125)"/>
<path d="M236.193 416.57C232.493 406.47 229.993 396.57 228.293 387.27C251.893 384.07 274.793 372.07 291.593 352.07C316.693 322.17 321.893 282.07 307.693 249.47C304.793 250.27 301.893 251.17 299.293 252.27C295.793 253.77 293.293 254.77 291.193 255.57C285.793 257.77 284.793 258.17 280.393 260.77C277.393 262.57 274.093 263.37 270.793 263.37C267.093 263.37 263.393 262.27 260.293 260.07L252.493 254.67C247.593 251.27 244.693 245.97 244.693 240.17C244.593 234.37 247.293 228.97 252.093 225.37C259.293 220.07 266.193 214.57 273.093 208.77C242.293 189.17 202.793 190.17 171.693 209.47C172.293 210.07 172.893 210.67 173.493 211.37C202.493 242.47 200.693 291.17 162.093 327.17C159.293 329.77 156.393 332.17 153.293 334.37C146.893 338.37 138.093 343.17 124.193 349.67C106.893 357.87 99.7929 359.67 97.1929 365.67C94.6929 371.67 77.0929 423.77 86.8929 428.07C96.6929 432.37 107.993 389.27 112.393 376.77C119.393 374.77 134.593 369.37 149.293 360.47C151.393 362.67 153.593 364.77 155.993 366.77C159.993 370.07 164.093 373.07 168.493 375.57C162.193 385.97 157.993 400.87 158.793 418.87C158.993 424.17 160.893 429.77 163.993 434.37C167.193 438.97 172.093 444.77 176.793 451.07C180.993 456.57 185.593 462.77 189.093 469.97C196.593 485.27 208.093 510.47 211.193 538.17C214.293 565.87 225.493 552.37 225.293 549.17C226.393 534.77 224.993 498.47 203.593 451.77C200.293 445.17 188.493 427.07 181.293 419.37C178.093 409.87 182.393 395.67 187.293 384.07C194.493 386.37 201.893 387.67 209.393 388.17C212.493 418.47 219.393 459.07 238.693 481.17C243.993 487.17 285.993 518.07 312.193 595.07C318.193 601.27 322.693 591.17 322.693 586.67C322.693 565.47 301.193 522.37 294.493 511.77C277.093 484.37 245.893 443.47 236.193 416.57Z" fill="url(#paint5_linear_233_125)"/>
<path d="M163.696 220.37C156.096 212.17 146.596 206.67 136.196 203.77C135.996 199.77 135.696 196.17 135.196 193.27C132.496 178.07 103.096 165.37 95.0964 163.57C87.0964 161.77 83.5964 167.97 86.9964 171.17C90.3964 174.37 114.996 182.27 119.496 196.17C119.996 197.77 120.496 199.57 120.796 201.57C116.996 201.47 113.096 201.67 109.196 202.27C98.9964 191.07 83.2964 180.57 77.1964 178.97C57.4964 173.97 17.2964 191.57 10.4964 197.67C5.49645 202.17 8.99645 205.47 12.3964 204.77C21.4964 202.97 60.4964 191.37 73.0964 194.07C81.9964 195.97 89.5964 201.97 94.3964 205.87C83.3964 209.67 72.5964 216.17 62.7964 225.17C48.0964 238.87 39.5964 260.77 36.4964 280.87C34.8964 291.07 34.6964 301.07 35.8964 309.67C37.0964 318.17 39.6964 326.07 44.5964 331.37C49.4964 336.57 57.0964 339.87 65.3964 341.67C73.8964 343.47 83.7964 343.97 94.0964 342.97C114.596 341.07 137.596 333.27 154.096 317.97C186.596 287.67 188.096 246.57 163.696 220.37ZM156.896 278.17C150.596 289.67 133.396 300.57 125.196 296.07C116.996 291.57 115.896 273.07 123.796 258.57C131.796 244.07 144.796 238.67 153.996 243.67C163.196 248.67 163.196 266.67 156.896 278.17Z" fill="url(#paint6_linear_233_125)"/>
<path d="M420.596 1752.17C401.396 1761.07 347.496 1754.67 300.996 1717.87C331.896 1731.87 366.596 1732.87 396.496 1717.57C440.796 1694.87 461.696 1643.07 452.496 1590.47C452.996 1592.17 453.496 1593.87 453.996 1595.57C472.596 1661.97 451.996 1737.67 420.596 1752.17Z" fill="url(#paint7_linear_233_125)"/>
<path d="M396.494 1717.57C366.494 1732.97 331.894 1731.97 300.994 1717.87C290.794 1709.77 280.994 1700.27 271.894 1689.07C261.294 1676.07 251.794 1660.77 244.094 1643.07C283.794 1642.77 323.794 1622.57 348.294 1586.37C369.994 1554.27 374.694 1516.57 364.494 1484.17C394.194 1497.67 425.494 1524.27 444.794 1569.27C447.694 1575.97 450.294 1582.97 452.494 1590.47C461.694 1643.07 440.694 1694.87 396.494 1717.57Z" fill="url(#paint8_linear_233_125)"/>
<path d="M364.396 1484.17C346.396 1476.07 328.996 1472.77 315.196 1473.07C329.896 1510.37 323.396 1555.17 295.096 1588.77C279.396 1607.47 259.096 1620.07 237.496 1626.27C239.496 1632.07 241.696 1637.77 243.996 1643.07C283.696 1642.77 323.696 1622.57 348.196 1586.37C369.896 1554.27 374.696 1516.57 364.396 1484.17Z" fill="url(#paint9_linear_233_125)"/>
<path d="M479.996 1234.17C479.896 1234.17 479.896 1234.17 479.796 1234.17C474.396 1234.17 458.296 1238.37 421.396 1275.97C395.196 1302.77 371.496 1333.37 359.196 1351.47C327.296 1398.17 292.496 1435.17 252.796 1464.47C251.596 1465.37 251.496 1466.37 251.496 1466.97C251.496 1467.57 251.696 1468.57 252.896 1469.37L260.696 1474.77C261.796 1475.57 263.396 1475.57 264.596 1474.87C269.996 1471.67 271.796 1470.97 277.496 1468.67C279.496 1467.87 281.996 1466.87 285.396 1465.47C301.696 1458.67 321.596 1457.87 338.996 1457.67C357.796 1457.47 392.896 1454.57 417.096 1438.07C455.296 1412.07 471.496 1368.97 477.896 1345.57C480.396 1336.17 485.296 1312.87 487.696 1289.87C491.696 1251.67 486.296 1239.87 483.796 1236.47C482.496 1234.47 481.196 1234.27 479.996 1234.17Z" fill="url(#paint10_linear_233_125)"/>
<path d="M207.695 1406.77C231.895 1404.97 256.395 1410.97 277.195 1425.47C283.795 1419.87 290.095 1412.77 294.795 1404.47C311.895 1374.67 311.395 1350.97 298.095 1319.17C284.795 1287.47 245.295 1223.27 226.995 1227.17C208.695 1231.07 201.695 1294.17 202.495 1332.37C203.295 1365.37 205.695 1389.47 207.695 1406.77Z" fill="url(#paint11_linear_233_125)"/>
<path d="M228.193 1643.57C224.493 1633.47 221.993 1623.57 220.293 1614.27C243.893 1611.07 266.793 1599.07 283.593 1579.07C308.693 1549.17 313.893 1509.07 299.693 1476.47C296.793 1477.27 293.893 1478.17 291.293 1479.27C287.793 1480.77 285.293 1481.77 283.193 1482.57C277.793 1484.77 276.793 1485.17 272.393 1487.77C269.393 1489.57 266.093 1490.37 262.793 1490.37C259.093 1490.37 255.393 1489.27 252.293 1487.07L244.493 1481.67C239.593 1478.27 236.693 1472.97 236.693 1467.17C236.593 1461.37 239.293 1455.97 244.093 1452.37C251.293 1447.07 258.193 1441.57 265.093 1435.77C234.293 1416.17 194.793 1417.17 163.693 1436.47C164.293 1437.07 164.893 1437.67 165.493 1438.37C194.493 1469.47 192.693 1518.17 154.093 1554.17C151.293 1556.77 148.393 1559.17 145.293 1561.37C138.893 1565.37 130.093 1570.17 116.193 1576.67C98.8929 1584.87 91.7929 1586.67 89.1929 1592.67C86.6929 1598.67 69.0929 1650.77 78.8929 1655.07C88.6929 1659.37 99.9929 1616.27 104.393 1603.77C111.393 1601.77 126.593 1596.37 141.293 1587.47C143.393 1589.67 145.593 1591.77 147.993 1593.77C151.993 1597.07 156.093 1600.07 160.493 1602.57C154.193 1612.97 149.993 1627.87 150.793 1645.87C150.993 1651.17 152.893 1656.77 155.993 1661.37C159.193 1665.97 164.093 1671.77 168.793 1678.07C172.993 1683.57 177.593 1689.77 181.093 1696.97C188.593 1712.27 200.093 1737.47 203.193 1765.17C206.293 1792.87 217.493 1779.37 217.293 1776.17C218.393 1761.77 216.993 1725.47 195.593 1678.77C192.293 1672.17 180.493 1654.07 173.293 1646.37C170.093 1636.87 174.393 1622.67 179.293 1611.07C186.493 1613.37 193.893 1614.67 201.393 1615.17C204.493 1645.47 211.393 1686.07 230.693 1708.17C235.993 1714.17 277.993 1745.07 304.193 1822.07C310.193 1828.27 314.693 1818.17 314.693 1813.67C314.693 1792.47 293.193 1749.37 286.493 1738.77C269.093 1711.37 237.893 1670.47 228.193 1643.57Z" fill="url(#paint12_linear_233_125)"/>
<path d="M155.696 1447.37C148.096 1439.17 138.596 1433.67 128.196 1430.77C127.996 1426.77 127.696 1423.17 127.196 1420.27C124.496 1405.07 95.0964 1392.37 87.0964 1390.57C79.0964 1388.77 75.5964 1394.97 78.9964 1398.17C82.3964 1401.37 106.996 1409.27 111.496 1423.17C111.996 1424.77 112.496 1426.57 112.796 1428.57C108.996 1428.47 105.096 1428.67 101.196 1429.27C90.9964 1418.07 75.2964 1407.57 69.1964 1405.97C49.4964 1400.97 9.29645 1418.57 2.49645 1424.67C-2.50355 1429.17 0.996446 1432.47 4.39645 1431.77C13.4964 1429.97 52.4964 1418.37 65.0964 1421.07C73.9964 1422.97 81.5964 1428.97 86.3964 1432.87C75.3964 1436.67 64.5964 1443.17 54.7964 1452.17C40.0964 1465.87 31.5964 1487.77 28.4964 1507.87C26.8964 1518.07 26.6964 1528.07 27.8964 1536.67C29.0964 1545.17 31.6964 1553.07 36.5964 1558.37C41.4964 1563.57 49.0964 1566.87 57.3964 1568.67C65.8964 1570.47 75.7964 1570.97 86.0964 1569.97C106.596 1568.07 129.596 1560.27 146.096 1544.97C178.596 1514.67 180.096 1473.57 155.696 1447.37ZM148.896 1505.17C142.596 1516.67 125.396 1527.57 117.196 1523.07C108.996 1518.57 107.896 1500.07 115.796 1485.57C123.796 1471.07 136.796 1465.67 145.996 1470.67C155.196 1475.67 155.196 1493.67 148.896 1505.17Z" fill="url(#paint13_linear_233_125)"/>
<path d="M3140.7 525.17C3121.5 534.07 3067.6 527.67 3021.1 490.87C3052 504.87 3086.7 505.87 3116.6 490.57C3160.9 467.87 3181.8 416.07 3172.6 363.47C3173.1 365.17 3173.6 366.87 3174.1 368.57C3192.7 434.97 3172.1 510.67 3140.7 525.17Z" fill="url(#paint14_linear_233_125)"/>
<path d="M3116.6 490.57C3086.6 505.97 3052 504.97 3021.1 490.87C3010.9 482.77 3001.1 473.27 2992 462.07C2981.4 449.07 2971.9 433.77 2964.2 416.07C3003.9 415.77 3043.9 395.57 3068.4 359.37C3090.1 327.27 3094.8 289.57 3084.6 257.17C3114.3 270.67 3145.6 297.27 3164.9 342.27C3167.8 348.97 3170.4 355.97 3172.6 363.47C3181.8 416.07 3160.8 467.87 3116.6 490.57Z" fill="url(#paint15_linear_233_125)"/>
<path d="M3084.5 257.169C3066.5 249.069 3049.1 245.769 3035.3 246.069C3050 283.369 3043.5 328.169 3015.2 361.769C2999.5 380.469 2979.2 393.069 2957.6 399.269C2959.6 405.069 2961.8 410.769 2964.1 416.069C3003.8 415.769 3043.8 395.569 3068.3 359.369C3090 327.269 3094.8 289.569 3084.5 257.169Z" fill="url(#paint16_linear_233_125)"/>
<path d="M3200.1 7.16992C3200 7.16992 3200 7.16992 3199.9 7.16992C3194.5 7.16992 3178.4 11.3699 3141.5 48.9699C3115.3 75.7699 3091.6 106.37 3079.3 124.47C3047.4 171.17 3012.6 208.17 2972.9 237.47C2971.7 238.37 2971.6 239.37 2971.6 239.97C2971.6 240.57 2971.8 241.57 2973 242.37L2980.8 247.77C2981.9 248.57 2983.5 248.57 2984.7 247.87C2990.1 244.67 2991.9 243.97 2997.6 241.67C2999.6 240.87 3002.1 239.87 3005.5 238.47C3021.8 231.67 3041.7 230.87 3059.1 230.67C3077.9 230.47 3113 227.57 3137.2 211.07C3175.4 185.07 3191.6 141.97 3198 118.57C3200.5 109.17 3205.4 85.8699 3207.8 62.8699C3211.8 24.6699 3206.4 12.8699 3203.9 9.46992C3202.6 7.46992 3201.3 7.26992 3200.1 7.16992Z" fill="url(#paint17_linear_233_125)"/>
<path d="M2927.8 179.77C2952 177.97 2976.5 183.97 2997.3 198.47C3003.9 192.87 3010.2 185.77 3014.9 177.47C3032 147.67 3031.5 123.97 3018.2 92.17C3004.9 60.47 2965.4 -3.73005 2947.1 0.169951C2928.8 4.06995 2921.8 67.17 2922.6 105.37C2923.4 138.37 2925.8 162.47 2927.8 179.77Z" fill="url(#paint18_linear_233_125)"/>
<path d="M2948.3 416.57C2944.6 406.47 2942.1 396.57 2940.4 387.27C2964 384.07 2986.9 372.07 3003.7 352.07C3028.8 322.17 3034 282.07 3019.8 249.47C3016.9 250.27 3014 251.17 3011.4 252.27C3007.9 253.77 3005.4 254.77 3003.3 255.57C2997.9 257.77 2996.9 258.17 2992.5 260.77C2989.5 262.57 2986.2 263.37 2982.9 263.37C2979.2 263.37 2975.5 262.27 2972.4 260.07L2964.6 254.67C2959.7 251.27 2956.8 245.97 2956.8 240.17C2956.7 234.37 2959.4 228.97 2964.2 225.37C2971.4 220.07 2978.3 214.57 2985.2 208.77C2954.4 189.17 2914.9 190.17 2883.8 209.47C2884.4 210.07 2885 210.67 2885.6 211.37C2914.6 242.47 2912.8 291.17 2874.2 327.17C2871.4 329.77 2868.5 332.17 2865.4 334.37C2859 338.37 2850.2 343.17 2836.3 349.67C2819 357.87 2811.9 359.67 2809.3 365.67C2806.8 371.67 2789.2 423.77 2799 428.07C2808.8 432.37 2820.1 389.27 2824.5 376.77C2831.5 374.77 2846.7 369.37 2861.4 360.47C2863.5 362.67 2865.7 364.77 2868.1 366.77C2872.1 370.07 2876.2 373.07 2880.6 375.57C2874.3 385.97 2870.1 400.87 2870.9 418.87C2871.1 424.17 2873 429.77 2876.1 434.37C2879.3 438.97 2884.2 444.77 2888.9 451.07C2893.1 456.57 2897.7 462.77 2901.2 469.97C2908.7 485.27 2920.2 510.47 2923.3 538.17C2926.4 565.87 2937.6 552.37 2937.4 549.17C2938.5 534.77 2937.1 498.47 2915.7 451.77C2912.4 445.17 2900.6 427.07 2893.4 419.37C2890.2 409.87 2894.5 395.67 2899.4 384.07C2906.6 386.37 2914 387.67 2921.5 388.17C2924.6 418.47 2931.5 459.07 2950.8 481.17C2956.1 487.17 2998.1 518.07 3024.3 595.07C3030.3 601.27 3034.8 591.17 3034.8 586.67C3034.8 565.47 3013.3 522.37 3006.6 511.77C2989.2 484.37 2958 443.47 2948.3 416.57Z" fill="url(#paint19_linear_233_125)"/>
<path d="M2875.8 220.37C2868.2 212.17 2858.7 206.67 2848.3 203.77C2848.1 199.77 2847.8 196.17 2847.3 193.27C2844.6 178.07 2815.2 165.37 2807.2 163.57C2799.2 161.77 2795.7 167.97 2799.1 171.17C2802.5 174.37 2827.1 182.27 2831.6 196.17C2832.1 197.77 2832.6 199.57 2832.9 201.57C2829.1 201.47 2825.2 201.67 2821.3 202.27C2811.1 191.07 2795.4 180.57 2789.3 178.97C2769.6 173.97 2729.4 191.57 2722.6 197.67C2717.6 202.17 2721.1 205.47 2724.5 204.77C2733.6 202.97 2772.6 191.37 2785.2 194.07C2794.1 195.97 2801.7 201.97 2806.5 205.87C2795.5 209.67 2784.7 216.17 2774.9 225.17C2760.2 238.87 2751.7 260.77 2748.6 280.87C2747 291.07 2746.8 301.07 2748 309.67C2749.2 318.17 2751.8 326.07 2756.7 331.37C2761.6 336.57 2769.2 339.87 2777.5 341.67C2786 343.47 2795.9 343.97 2806.2 342.97C2826.7 341.07 2849.7 333.27 2866.2 317.97C2898.7 287.67 2900.2 246.57 2875.8 220.37ZM2869 278.17C2862.7 289.67 2845.5 300.57 2837.3 296.07C2829.1 291.57 2828 273.07 2835.9 258.57C2843.9 244.07 2856.9 238.67 2866.1 243.67C2875.3 248.67 2875.3 266.67 2869 278.17Z" fill="url(#paint20_linear_233_125)"/>
<path d="M1879.77 268.083C1887.28 269.423 1893.64 273.376 1898.87 279.942C1904.09 286.508 1906.71 293.945 1906.71 302.253C1906.71 309.355 1904.83 315.787 1901.08 321.549C1897.46 327.177 1892.17 331.666 1885.2 335.016C1878.23 338.232 1870.12 339.84 1860.88 339.84H1805V200.145H1858.27C1867.78 200.145 1875.95 201.753 1882.79 204.969C1889.62 208.185 1894.78 212.54 1898.26 218.034C1901.75 223.394 1903.49 229.424 1903.49 236.124C1903.49 244.164 1901.35 250.864 1897.06 256.224C1892.77 261.584 1887.01 265.537 1879.77 268.083ZM1827.91 259.44H1856.26C1863.76 259.44 1869.59 257.631 1873.74 254.013C1878.03 250.395 1880.17 245.37 1880.17 238.938C1880.17 232.372 1878.03 227.28 1873.74 223.662C1869.59 219.91 1863.76 218.034 1856.26 218.034H1827.91V259.44ZM1858.87 321.951C1866.64 321.951 1872.74 320.008 1877.16 316.122C1881.58 312.236 1883.79 306.809 1883.79 299.841C1883.79 293.007 1881.45 287.58 1876.76 283.56C1872.07 279.406 1865.84 277.329 1858.06 277.329H1827.91V321.951H1858.87Z" fill="#5A28C6"/>
<path d="M1977.64 341.649C1967.18 341.649 1957.74 339.304 1949.29 334.614C1940.85 329.79 1934.22 323.09 1929.4 314.514C1924.57 305.804 1922.16 295.754 1922.16 284.364C1922.16 273.108 1924.64 263.125 1929.6 254.415C1934.55 245.705 1941.32 239.005 1949.9 234.315C1958.47 229.625 1968.05 227.28 1978.64 227.28C1989.23 227.28 1998.81 229.625 2007.38 234.315C2015.96 239.005 2022.73 245.705 2027.68 254.415C2032.64 263.125 2035.12 273.108 2035.12 284.364C2035.12 295.62 2032.58 305.603 2027.48 314.313C2022.39 323.023 2015.42 329.79 2006.58 334.614C1997.87 339.304 1988.22 341.649 1977.64 341.649ZM1977.64 322.353C1983.53 322.353 1989.03 320.879 1994.12 317.931C1999.34 314.983 2003.56 310.695 2006.78 305.067C2010 299.305 2011.6 292.404 2011.6 284.364C2011.6 276.324 2010.06 269.49 2006.98 263.862C2003.9 258.1 1999.81 253.812 1994.72 250.998C1989.63 248.05 1984.13 246.576 1978.24 246.576C1972.34 246.576 1966.92 248.05 1961.96 250.998C1957 253.812 1952.98 258.1 1949.9 263.862C1946.95 269.49 1945.48 276.324 1945.48 284.364C1945.48 292.404 1946.88 299.305 1949.7 305.067C1952.64 310.829 1956.53 315.184 1961.35 318.132C1966.31 320.946 1971.74 322.353 1977.64 322.353Z" fill="#5A28C6"/>
<path d="M2156.06 229.089V339.84H2133.15V326.775C2129.53 331.331 2124.77 334.949 2118.88 337.629C2113.12 340.175 2106.95 341.448 2100.39 341.448C2091.68 341.448 2083.84 339.639 2076.87 336.021C2070.03 332.403 2064.61 327.043 2060.59 319.941C2056.7 312.839 2054.76 304.263 2054.76 294.213V229.089H2077.47V290.796C2077.47 300.712 2079.95 308.35 2084.91 313.71C2089.87 318.936 2096.63 321.549 2105.21 321.549C2113.79 321.549 2120.55 318.936 2125.51 313.71C2130.6 308.35 2133.15 300.712 2133.15 290.796V229.089H2156.06Z" fill="#5A28C6"/>
<path d="M2236.16 227.28C2244.87 227.28 2252.65 229.089 2259.48 232.707C2266.45 236.325 2271.87 241.685 2275.76 248.787C2279.65 255.889 2281.59 264.465 2281.59 274.515V339.84H2258.88V277.932C2258.88 268.016 2256.4 260.445 2251.44 255.219C2246.48 249.859 2239.71 247.179 2231.14 247.179C2222.56 247.179 2215.73 249.859 2210.64 255.219C2205.68 260.445 2203.2 268.016 2203.2 277.932V339.84H2180.29V229.089H2203.2V241.752C2206.95 237.196 2211.71 233.645 2217.47 231.099C2223.37 228.553 2229.6 227.28 2236.16 227.28Z" fill="#5A28C6"/>
<path d="M2393.24 214.416C2389.09 214.416 2385.6 213.009 2382.79 210.195C2379.98 207.381 2378.57 203.897 2378.57 199.743C2378.57 195.589 2379.98 192.105 2382.79 189.291C2385.6 186.477 2389.09 185.07 2393.24 185.07C2397.26 185.07 2400.68 186.477 2403.49 189.291C2406.31 192.105 2407.71 195.589 2407.71 199.743C2407.71 203.897 2406.31 207.381 2403.49 210.195C2400.68 213.009 2397.26 214.416 2393.24 214.416Z" fill="#5A28C6"/>
<path d="M2534.08 281.349C2534.08 285.235 2533.81 288.853 2533.27 292.203H2448.45C2449.12 301.449 2452.4 308.819 2458.3 314.313C2464.2 319.673 2471.5 322.353 2480.21 322.353C2492.54 322.353 2501.25 317.194 2506.34 306.876H2531.06C2527.71 317.06 2521.61 325.435 2512.77 332.001C2504.06 338.433 2493.21 341.649 2480.21 341.649C2469.62 341.649 2460.11 339.304 2451.67 334.614C2443.36 329.79 2436.79 323.09 2431.97 314.514C2427.28 305.804 2424.93 295.754 2424.93 284.364C2424.93 272.974 2427.21 262.991 2431.77 254.415C2436.46 245.705 2442.96 239.005 2451.26 234.315C2459.71 229.625 2469.35 227.28 2480.21 227.28C2490.66 227.28 2499.97 229.558 2508.15 234.114C2516.32 238.67 2522.69 245.035 2527.24 253.209C2531.8 261.383 2534.08 270.763 2534.08 281.349ZM2510.16 275.721C2510.02 266.743 2507.01 259.641 2501.11 254.415C2495.35 249.189 2488.05 246.576 2479.2 246.576C2471.16 246.576 2464.26 249.189 2458.5 254.415C2452.87 259.641 2449.59 266.743 2448.65 275.721H2510.16Z" fill="#5A28C6"/>
<path d="M2594.41 341.649C2585.84 341.649 2578.13 340.108 2571.3 337.026C2564.47 333.81 2559.04 329.522 2555.02 324.162C2551 318.668 2548.85 312.571 2548.59 305.871H2572.3C2572.71 310.963 2574.92 315.184 2578.94 318.534C2583.09 321.884 2588.25 323.559 2594.41 323.559C2600.85 323.559 2605.8 322.286 2609.29 319.74C2612.91 317.06 2614.72 313.509 2614.72 309.087C2614.72 305.067 2612.71 301.985 2608.69 299.841C2604.67 297.697 2598.43 295.553 2589.99 293.409C2581.82 291.131 2575.12 288.987 2569.89 286.977C2564.8 284.833 2560.38 281.617 2556.63 277.329C2552.87 272.907 2551 267.212 2551 260.244C2551 254.214 2552.67 248.72 2556.02 243.762C2559.37 238.67 2564.2 234.65 2570.5 231.702C2576.93 228.754 2584.43 227.28 2593.01 227.28C2605.6 227.28 2615.72 230.496 2623.36 236.928C2631.13 243.226 2635.28 251.869 2635.82 262.857H2612.91C2612.5 257.497 2610.49 253.276 2606.88 250.194C2603.26 246.978 2598.37 245.37 2592.2 245.37C2586.17 245.37 2581.55 246.643 2578.33 249.189C2575.12 251.601 2573.51 254.884 2573.51 259.038C2573.51 261.986 2574.58 264.465 2576.73 266.475C2578.87 268.485 2581.55 270.093 2584.77 271.299C2587.98 272.371 2592.54 273.711 2598.43 275.319C2606.47 277.463 2613.04 279.607 2618.13 281.751C2623.22 283.895 2627.58 287.178 2631.2 291.6C2634.82 295.888 2636.62 301.516 2636.62 308.484C2636.62 314.782 2634.95 320.477 2631.6 325.569C2628.25 330.527 2623.36 334.48 2616.93 337.428C2610.63 340.242 2603.12 341.649 2594.41 341.649Z" fill="#5A28C6"/>
<path d="M1919.77 532.84H1896.86L1827.91 428.521V532.84H1805V392.944H1827.91L1896.86 497.062V392.944H1919.77V532.84Z" fill="#5A28C6"/>
<path d="M2049.36 474.349C2049.36 478.235 2049.09 481.853 2048.55 485.203H1963.73C1964.4 494.449 1967.68 501.819 1973.58 507.313C1979.48 512.673 1986.78 515.353 1995.49 515.353C2007.82 515.353 2016.53 510.194 2021.62 499.876H2046.34C2042.99 510.06 2036.89 518.435 2028.05 525.001C2019.34 531.433 2008.49 534.649 1995.49 534.649C1984.9 534.649 1975.39 532.304 1966.95 527.614C1958.64 522.79 1952.07 516.09 1947.25 507.514C1942.56 498.804 1940.21 488.754 1940.21 477.364C1940.21 465.974 1942.49 455.991 1947.05 447.415C1951.74 438.705 1958.24 432.005 1966.54 427.315C1974.99 422.625 1984.63 420.28 1995.49 420.28C2005.94 420.28 2015.25 422.558 2023.43 427.114C2031.6 431.67 2037.97 438.035 2042.52 446.209C2047.08 454.383 2049.36 463.763 2049.36 474.349ZM2025.44 468.721C2025.3 459.743 2022.29 452.641 2016.39 447.415C2010.63 442.189 2003.33 439.576 1994.48 439.576C1986.44 439.576 1979.54 442.189 1973.78 447.415C1968.15 452.641 1964.87 459.743 1963.93 468.721H2025.44Z" fill="#5A28C6"/>
<path d="M2354.57 534.649C2344.11 534.649 2334.67 532.304 2326.22 527.614C2317.78 522.79 2311.15 516.09 2306.33 507.514C2301.5 498.804 2299.09 488.754 2299.09 477.364C2299.09 466.108 2301.57 456.125 2306.53 447.415C2311.48 438.705 2318.25 432.005 2326.83 427.315C2335.4 422.625 2344.98 420.28 2355.57 420.28C2366.16 420.28 2375.74 422.625 2384.31 427.315C2392.89 432.005 2399.66 438.705 2404.61 447.415C2409.57 456.125 2412.05 466.108 2412.05 477.364C2412.05 488.62 2409.51 498.603 2404.41 507.313C2399.32 516.023 2392.35 522.79 2383.51 527.614C2374.8 532.304 2365.15 534.649 2354.57 534.649ZM2354.57 515.353C2360.46 515.353 2365.96 513.879 2371.05 510.931C2376.27 507.983 2380.49 503.695 2383.71 498.067C2386.93 492.305 2388.53 485.404 2388.53 477.364C2388.53 469.324 2386.99 462.49 2383.91 456.862C2380.83 451.1 2376.74 446.812 2371.65 443.998C2366.56 441.05 2361.06 439.576 2355.17 439.576C2349.27 439.576 2343.85 441.05 2338.89 443.998C2333.93 446.812 2329.91 451.1 2326.83 456.862C2323.88 462.49 2322.41 469.324 2322.41 477.364C2322.41 485.404 2323.81 492.305 2326.63 498.067C2329.57 503.829 2333.46 508.184 2338.28 511.132C2343.24 513.946 2348.67 515.353 2354.57 515.353Z" fill="#5A28C6"/>
<path d="M2454.61 441.385C2457.96 434.685 2462.38 429.526 2467.87 425.908C2473.5 422.156 2480.13 420.28 2487.77 420.28V443.998H2481.94C2472.97 443.998 2466.13 446.276 2461.44 450.832C2456.89 455.388 2454.61 463.294 2454.61 474.55V532.84H2431.69V422.089H2454.61V441.385Z" fill="#5A28C6"/>
<path d="M2550.64 477.565L2601.7 532.84H2570.74L2529.74 485.203V532.84H2506.82V384.1H2529.74V470.53L2569.94 422.089H2601.7L2550.64 477.565Z" fill="#5A28C6"/>
<path d="M2332.54 247.782V309.087C2332.54 313.241 2333.48 316.256 2335.35 318.132C2337.36 319.874 2340.71 320.745 2345.4 320.745H2359.47V339.84H2341.38C2331.07 339.84 2323.16 337.428 2317.67 332.604C2312.17 327.78 2309.43 319.941 2309.43 309.087V247.782H2296.36V229.089H2309.43V201.552H2332.54V229.089H2381.58H2404.5V339.84H2381.58V247.782H2332.54Z" fill="#5A28C6"/>
<path d="M2096.63 440.782V502.087C2096.63 506.241 2097.57 509.256 2099.44 511.132C2101.45 512.874 2104.8 513.745 2109.49 513.745H2123.56V532.84H2105.47C2095.16 532.84 2087.25 530.428 2081.76 525.604C2076.26 520.78 2073.51 512.941 2073.51 502.087V440.782H2060.45V422.089H2073.51V394.552H2096.63V422.089H2129.61H2152.92L2176.04 511.132L2199.56 422.089H2223.47L2245.99 510.73L2268.9 422.089H2291.41L2257.04 532.84H2232.92L2210.61 451.033L2188.3 532.84H2164.18L2135.44 440.782H2096.63Z" fill="#5A28C6"/>
<path d="M3140.6 1752.17C3121.4 1761.07 3067.5 1754.67 3021 1717.87C3051.9 1731.87 3086.6 1732.87 3116.5 1717.57C3160.8 1694.87 3181.7 1643.07 3172.5 1590.47C3173 1592.17 3173.5 1593.87 3174 1595.57C3192.6 1661.97 3172 1737.67 3140.6 1752.17Z" fill="url(#paint21_linear_233_125)"/>
<path d="M3116.49 1717.57C3086.49 1732.97 3051.89 1731.97 3020.99 1717.87C3010.79 1709.77 3000.99 1700.27 2991.89 1689.07C2981.29 1676.07 2971.79 1660.77 2964.09 1643.07C3003.79 1642.77 3043.79 1622.57 3068.29 1586.37C3089.99 1554.27 3094.69 1516.57 3084.49 1484.17C3114.19 1497.67 3145.49 1524.27 3164.79 1569.27C3167.69 1575.97 3170.29 1582.97 3172.49 1590.47C3181.69 1643.07 3160.69 1694.87 3116.49 1717.57Z" fill="url(#paint22_linear_233_125)"/>
<path d="M3084.4 1484.17C3066.4 1476.07 3049 1472.77 3035.2 1473.07C3049.9 1510.37 3043.4 1555.17 3015.1 1588.77C2999.4 1607.47 2979.1 1620.07 2957.5 1626.27C2959.5 1632.07 2961.7 1637.77 2964 1643.07C3003.7 1642.77 3043.7 1622.57 3068.2 1586.37C3089.9 1554.27 3094.7 1516.57 3084.4 1484.17Z" fill="url(#paint23_linear_233_125)"/>
<path d="M3200 1234.17C3199.9 1234.17 3199.9 1234.17 3199.8 1234.17C3194.4 1234.17 3178.3 1238.37 3141.4 1275.97C3115.2 1302.77 3091.5 1333.37 3079.2 1351.47C3047.3 1398.17 3012.5 1435.17 2972.8 1464.47C2971.6 1465.37 2971.5 1466.37 2971.5 1466.97C2971.5 1467.57 2971.7 1468.57 2972.9 1469.37L2980.7 1474.77C2981.8 1475.57 2983.4 1475.57 2984.6 1474.87C2990 1471.67 2991.8 1470.97 2997.5 1468.67C2999.5 1467.87 3002 1466.87 3005.4 1465.47C3021.7 1458.67 3041.6 1457.87 3059 1457.67C3077.8 1457.47 3112.9 1454.57 3137.1 1438.07C3175.3 1412.07 3191.5 1368.97 3197.9 1345.57C3200.4 1336.17 3205.3 1312.87 3207.7 1289.87C3211.7 1251.67 3206.3 1239.87 3203.8 1236.47C3202.5 1234.47 3201.2 1234.27 3200 1234.17Z" fill="url(#paint24_linear_233_125)"/>
<path d="M2927.69 1406.77C2951.89 1404.97 2976.39 1410.97 2997.19 1425.47C3003.79 1419.87 3010.09 1412.77 3014.79 1404.47C3031.89 1374.67 3031.39 1350.97 3018.09 1319.17C3004.79 1287.47 2965.29 1223.27 2946.99 1227.17C2928.69 1231.07 2921.69 1294.17 2922.49 1332.37C2923.29 1365.37 2925.69 1389.47 2927.69 1406.77Z" fill="url(#paint25_linear_233_125)"/>
<path d="M2948.19 1643.57C2944.49 1633.47 2941.99 1623.57 2940.29 1614.27C2963.89 1611.07 2986.79 1599.07 3003.59 1579.07C3028.69 1549.17 3033.89 1509.07 3019.69 1476.47C3016.79 1477.27 3013.89 1478.17 3011.29 1479.27C3007.79 1480.77 3005.29 1481.77 3003.19 1482.57C2997.79 1484.77 2996.79 1485.17 2992.39 1487.77C2989.39 1489.57 2986.09 1490.37 2982.79 1490.37C2979.09 1490.37 2975.39 1489.27 2972.29 1487.07L2964.49 1481.67C2959.59 1478.27 2956.69 1472.97 2956.69 1467.17C2956.59 1461.37 2959.29 1455.97 2964.09 1452.37C2971.29 1447.07 2978.19 1441.57 2985.09 1435.77C2954.29 1416.17 2914.79 1417.17 2883.69 1436.47C2884.29 1437.07 2884.89 1437.67 2885.49 1438.37C2914.49 1469.47 2912.69 1518.17 2874.09 1554.17C2871.29 1556.77 2868.39 1559.17 2865.29 1561.37C2858.89 1565.37 2850.09 1570.17 2836.19 1576.67C2818.89 1584.87 2811.79 1586.67 2809.19 1592.67C2806.69 1598.67 2789.09 1650.77 2798.89 1655.07C2808.69 1659.37 2819.99 1616.27 2824.39 1603.77C2831.39 1601.77 2846.59 1596.37 2861.29 1587.47C2863.39 1589.67 2865.59 1591.77 2867.99 1593.77C2871.99 1597.07 2876.09 1600.07 2880.49 1602.57C2874.19 1612.97 2869.99 1627.87 2870.79 1645.87C2870.99 1651.17 2872.89 1656.77 2875.99 1661.37C2879.19 1665.97 2884.09 1671.77 2888.79 1678.07C2892.99 1683.57 2897.59 1689.77 2901.09 1696.97C2908.59 1712.27 2920.09 1737.47 2923.19 1765.17C2926.29 1792.87 2937.49 1779.37 2937.29 1776.17C2938.39 1761.77 2936.99 1725.47 2915.59 1678.77C2912.29 1672.17 2900.49 1654.07 2893.29 1646.37C2890.09 1636.87 2894.39 1622.67 2899.29 1611.07C2906.49 1613.37 2913.89 1614.67 2921.39 1615.17C2924.49 1645.47 2931.39 1686.07 2950.69 1708.17C2955.99 1714.17 2997.99 1745.07 3024.19 1822.07C3030.19 1828.27 3034.69 1818.17 3034.69 1813.67C3034.69 1792.47 3013.19 1749.37 3006.49 1738.77C2989.09 1711.37 2957.89 1670.47 2948.19 1643.57Z" fill="url(#paint26_linear_233_125)"/>
<path d="M2875.7 1447.37C2868.1 1439.17 2858.6 1433.67 2848.2 1430.77C2848 1426.77 2847.7 1423.17 2847.2 1420.27C2844.5 1405.07 2815.1 1392.37 2807.1 1390.57C2799.1 1388.77 2795.6 1394.97 2799 1398.17C2802.4 1401.37 2827 1409.27 2831.5 1423.17C2832 1424.77 2832.5 1426.57 2832.8 1428.57C2829 1428.47 2825.1 1428.67 2821.2 1429.27C2811 1418.07 2795.3 1407.57 2789.2 1405.97C2769.5 1400.97 2729.3 1418.57 2722.5 1424.67C2717.5 1429.17 2721 1432.47 2724.4 1431.77C2733.5 1429.97 2772.5 1418.37 2785.1 1421.07C2794 1422.97 2801.6 1428.97 2806.4 1432.87C2795.4 1436.67 2784.6 1443.17 2774.8 1452.17C2760.1 1465.87 2751.6 1487.77 2748.5 1507.87C2746.9 1518.07 2746.7 1528.07 2747.9 1536.67C2749.1 1545.17 2751.7 1553.07 2756.6 1558.37C2761.5 1563.57 2769.1 1566.87 2777.4 1568.67C2785.9 1570.47 2795.8 1570.97 2806.1 1569.97C2826.6 1568.07 2849.6 1560.27 2866.1 1544.97C2898.6 1514.67 2900.1 1473.57 2875.7 1447.37ZM2868.9 1505.17C2862.6 1516.67 2845.4 1527.57 2837.2 1523.07C2829 1518.57 2827.9 1500.07 2835.8 1485.57C2843.8 1471.07 2856.8 1465.67 2866 1470.67C2875.2 1475.67 2875.2 1493.67 2868.9 1505.17Z" fill="url(#paint27_linear_233_125)"/>
<path d="M1879.77 1495.08C1887.28 1496.42 1893.64 1500.38 1898.87 1506.94C1904.09 1513.51 1906.71 1520.95 1906.71 1529.25C1906.71 1536.36 1904.83 1542.79 1901.08 1548.55C1897.46 1554.18 1892.17 1558.67 1885.2 1562.02C1878.23 1565.23 1870.12 1566.84 1860.88 1566.84H1805V1427.15H1858.27C1867.78 1427.15 1875.95 1428.75 1882.79 1431.97C1889.62 1435.19 1894.78 1439.54 1898.26 1445.03C1901.75 1450.39 1903.49 1456.42 1903.49 1463.12C1903.49 1471.16 1901.35 1477.86 1897.06 1483.22C1892.77 1488.58 1887.01 1492.54 1879.77 1495.08ZM1827.91 1486.44H1856.26C1863.76 1486.44 1869.59 1484.63 1873.74 1481.01C1878.03 1477.4 1880.17 1472.37 1880.17 1465.94C1880.17 1459.37 1878.03 1454.28 1873.74 1450.66C1869.59 1446.91 1863.76 1445.03 1856.26 1445.03H1827.91V1486.44ZM1858.87 1548.95C1866.64 1548.95 1872.74 1547.01 1877.16 1543.12C1881.58 1539.24 1883.79 1533.81 1883.79 1526.84C1883.79 1520.01 1881.45 1514.58 1876.76 1510.56C1872.07 1506.41 1865.84 1504.33 1858.06 1504.33H1827.91V1548.95H1858.87Z" fill="#5A28C6"/>
<path d="M1977.64 1568.65C1967.18 1568.65 1957.74 1566.3 1949.29 1561.61C1940.85 1556.79 1934.22 1550.09 1929.4 1541.51C1924.57 1532.8 1922.16 1522.75 1922.16 1511.36C1922.16 1500.11 1924.64 1490.13 1929.6 1481.42C1934.55 1472.71 1941.32 1466.01 1949.9 1461.32C1958.47 1456.63 1968.05 1454.28 1978.64 1454.28C1989.23 1454.28 1998.81 1456.63 2007.38 1461.32C2015.96 1466.01 2022.73 1472.71 2027.68 1481.42C2032.64 1490.13 2035.12 1500.11 2035.12 1511.36C2035.12 1522.62 2032.58 1532.6 2027.48 1541.31C2022.39 1550.02 2015.42 1556.79 2006.58 1561.61C1997.87 1566.3 1988.22 1568.65 1977.64 1568.65ZM1977.64 1549.35C1983.53 1549.35 1989.03 1547.88 1994.12 1544.93C1999.34 1541.98 2003.56 1537.7 2006.78 1532.07C2010 1526.31 2011.6 1519.4 2011.6 1511.36C2011.6 1503.32 2010.06 1496.49 2006.98 1490.86C2003.9 1485.1 1999.81 1480.81 1994.72 1478C1989.63 1475.05 1984.13 1473.58 1978.24 1473.58C1972.34 1473.58 1966.92 1475.05 1961.96 1478C1957 1480.81 1952.98 1485.1 1949.9 1490.86C1946.95 1496.49 1945.48 1503.32 1945.48 1511.36C1945.48 1519.4 1946.88 1526.31 1949.7 1532.07C1952.64 1537.83 1956.53 1542.18 1961.35 1545.13C1966.31 1547.95 1971.74 1549.35 1977.64 1549.35Z" fill="#5A28C6"/>
<path d="M2156.06 1456.09V1566.84H2133.15V1553.78C2129.53 1558.33 2124.77 1561.95 2118.88 1564.63C2113.12 1567.18 2106.95 1568.45 2100.39 1568.45C2091.68 1568.45 2083.84 1566.64 2076.87 1563.02C2070.03 1559.4 2064.61 1554.04 2060.59 1546.94C2056.7 1539.84 2054.76 1531.26 2054.76 1521.21V1456.09H2077.47V1517.8C2077.47 1527.71 2079.95 1535.35 2084.91 1540.71C2089.87 1545.94 2096.63 1548.55 2105.21 1548.55C2113.79 1548.55 2120.55 1545.94 2125.51 1540.71C2130.6 1535.35 2133.15 1527.71 2133.15 1517.8V1456.09H2156.06Z" fill="#5A28C6"/>
<path d="M2236.16 1454.28C2244.87 1454.28 2252.65 1456.09 2259.48 1459.71C2266.45 1463.33 2271.87 1468.69 2275.76 1475.79C2279.65 1482.89 2281.59 1491.47 2281.59 1501.52V1566.84H2258.88V1504.93C2258.88 1495.02 2256.4 1487.45 2251.44 1482.22C2246.48 1476.86 2239.71 1474.18 2231.14 1474.18C2222.56 1474.18 2215.73 1476.86 2210.64 1482.22C2205.68 1487.45 2203.2 1495.02 2203.2 1504.93V1566.84H2180.29V1456.09H2203.2V1468.75C2206.95 1464.2 2211.71 1460.65 2217.47 1458.1C2223.37 1455.55 2229.6 1454.28 2236.16 1454.28Z" fill="#5A28C6"/>
<path d="M2393.24 1441.42C2389.09 1441.42 2385.6 1440.01 2382.79 1437.2C2379.98 1434.38 2378.57 1430.9 2378.57 1426.74C2378.57 1422.59 2379.98 1419.11 2382.79 1416.29C2385.6 1413.48 2389.09 1412.07 2393.24 1412.07C2397.26 1412.07 2400.68 1413.48 2403.49 1416.29C2406.31 1419.11 2407.71 1422.59 2407.71 1426.74C2407.71 1430.9 2406.31 1434.38 2403.49 1437.2C2400.68 1440.01 2397.26 1441.42 2393.24 1441.42Z" fill="#5A28C6"/>
<path d="M2534.08 1508.35C2534.08 1512.24 2533.81 1515.85 2533.27 1519.2H2448.45C2449.12 1528.45 2452.4 1535.82 2458.3 1541.31C2464.2 1546.67 2471.5 1549.35 2480.21 1549.35C2492.54 1549.35 2501.25 1544.19 2506.34 1533.88H2531.06C2527.71 1544.06 2521.61 1552.44 2512.77 1559C2504.06 1565.43 2493.21 1568.65 2480.21 1568.65C2469.62 1568.65 2460.11 1566.3 2451.67 1561.61C2443.36 1556.79 2436.79 1550.09 2431.97 1541.51C2427.28 1532.8 2424.93 1522.75 2424.93 1511.36C2424.93 1499.97 2427.21 1489.99 2431.77 1481.42C2436.46 1472.71 2442.96 1466.01 2451.26 1461.32C2459.71 1456.63 2469.35 1454.28 2480.21 1454.28C2490.66 1454.28 2499.97 1456.56 2508.15 1461.11C2516.32 1465.67 2522.69 1472.04 2527.24 1480.21C2531.8 1488.38 2534.08 1497.76 2534.08 1508.35ZM2510.16 1502.72C2510.02 1493.74 2507.01 1486.64 2501.11 1481.42C2495.35 1476.19 2488.05 1473.58 2479.2 1473.58C2471.16 1473.58 2464.26 1476.19 2458.5 1481.42C2452.87 1486.64 2449.59 1493.74 2448.65 1502.72H2510.16Z" fill="#5A28C6"/>
<path d="M2594.41 1568.65C2585.84 1568.65 2578.13 1567.11 2571.3 1564.03C2564.47 1560.81 2559.04 1556.52 2555.02 1551.16C2551 1545.67 2548.85 1539.57 2548.59 1532.87H2572.3C2572.71 1537.96 2574.92 1542.18 2578.94 1545.53C2583.09 1548.88 2588.25 1550.56 2594.41 1550.56C2600.85 1550.56 2605.8 1549.29 2609.29 1546.74C2612.91 1544.06 2614.72 1540.51 2614.72 1536.09C2614.72 1532.07 2612.71 1528.99 2608.69 1526.84C2604.67 1524.7 2598.43 1522.55 2589.99 1520.41C2581.82 1518.13 2575.12 1515.99 2569.89 1513.98C2564.8 1511.83 2560.38 1508.62 2556.63 1504.33C2552.87 1499.91 2551 1494.21 2551 1487.24C2551 1481.21 2552.67 1475.72 2556.02 1470.76C2559.37 1465.67 2564.2 1461.65 2570.5 1458.7C2576.93 1455.75 2584.43 1454.28 2593.01 1454.28C2605.6 1454.28 2615.72 1457.5 2623.36 1463.93C2631.13 1470.23 2635.28 1478.87 2635.82 1489.86H2612.91C2612.5 1484.5 2610.49 1480.28 2606.88 1477.19C2603.26 1473.98 2598.37 1472.37 2592.2 1472.37C2586.17 1472.37 2581.55 1473.64 2578.33 1476.19C2575.12 1478.6 2573.51 1481.88 2573.51 1486.04C2573.51 1488.99 2574.58 1491.47 2576.73 1493.48C2578.87 1495.49 2581.55 1497.09 2584.77 1498.3C2587.98 1499.37 2592.54 1500.71 2598.43 1502.32C2606.47 1504.46 2613.04 1506.61 2618.13 1508.75C2623.22 1510.9 2627.58 1514.18 2631.2 1518.6C2634.82 1522.89 2636.62 1528.52 2636.62 1535.48C2636.62 1541.78 2634.95 1547.48 2631.6 1552.57C2628.25 1557.53 2623.36 1561.48 2616.93 1564.43C2610.63 1567.24 2603.12 1568.65 2594.41 1568.65Z" fill="#5A28C6"/>
<path d="M1919.77 1759.84H1896.86L1827.91 1655.52V1759.84H1805V1619.94H1827.91L1896.86 1724.06V1619.94H1919.77V1759.84Z" fill="#5A28C6"/>
<path d="M2049.36 1701.35C2049.36 1705.24 2049.09 1708.85 2048.55 1712.2H1963.73C1964.4 1721.45 1967.68 1728.82 1973.58 1734.31C1979.48 1739.67 1986.78 1742.35 1995.49 1742.35C2007.82 1742.35 2016.53 1737.19 2021.62 1726.88H2046.34C2042.99 1737.06 2036.89 1745.44 2028.05 1752C2019.34 1758.43 2008.49 1761.65 1995.49 1761.65C1984.9 1761.65 1975.39 1759.3 1966.95 1754.61C1958.64 1749.79 1952.07 1743.09 1947.25 1734.51C1942.56 1725.8 1940.21 1715.75 1940.21 1704.36C1940.21 1692.97 1942.49 1682.99 1947.05 1674.42C1951.74 1665.71 1958.24 1659.01 1966.54 1654.32C1974.99 1649.63 1984.63 1647.28 1995.49 1647.28C2005.94 1647.28 2015.25 1649.56 2023.43 1654.11C2031.6 1658.67 2037.97 1665.04 2042.52 1673.21C2047.08 1681.38 2049.36 1690.76 2049.36 1701.35ZM2025.44 1695.72C2025.3 1686.74 2022.29 1679.64 2016.39 1674.42C2010.63 1669.19 2003.33 1666.58 1994.48 1666.58C1986.44 1666.58 1979.54 1669.19 1973.78 1674.42C1968.15 1679.64 1964.87 1686.74 1963.93 1695.72H2025.44Z" fill="#5A28C6"/>
<path d="M2354.57 1761.65C2344.11 1761.65 2334.67 1759.3 2326.22 1754.61C2317.78 1749.79 2311.15 1743.09 2306.33 1734.51C2301.5 1725.8 2299.09 1715.75 2299.09 1704.36C2299.09 1693.11 2301.57 1683.13 2306.53 1674.42C2311.48 1665.71 2318.25 1659.01 2326.83 1654.32C2335.4 1649.63 2344.98 1647.28 2355.57 1647.28C2366.16 1647.28 2375.74 1649.63 2384.31 1654.32C2392.89 1659.01 2399.66 1665.71 2404.61 1674.42C2409.57 1683.13 2412.05 1693.11 2412.05 1704.36C2412.05 1715.62 2409.51 1725.6 2404.41 1734.31C2399.32 1743.02 2392.35 1749.79 2383.51 1754.61C2374.8 1759.3 2365.15 1761.65 2354.57 1761.65ZM2354.57 1742.35C2360.46 1742.35 2365.96 1740.88 2371.05 1737.93C2376.27 1734.98 2380.49 1730.7 2383.71 1725.07C2386.93 1719.31 2388.53 1712.4 2388.53 1704.36C2388.53 1696.32 2386.99 1689.49 2383.91 1683.86C2380.83 1678.1 2376.74 1673.81 2371.65 1671C2366.56 1668.05 2361.06 1666.58 2355.17 1666.58C2349.27 1666.58 2343.85 1668.05 2338.89 1671C2333.93 1673.81 2329.91 1678.1 2326.83 1683.86C2323.88 1689.49 2322.41 1696.32 2322.41 1704.36C2322.41 1712.4 2323.81 1719.31 2326.63 1725.07C2329.57 1730.83 2333.46 1735.18 2338.28 1738.13C2343.24 1740.95 2348.67 1742.35 2354.57 1742.35Z" fill="#5A28C6"/>
<path d="M2454.61 1668.39C2457.96 1661.69 2462.38 1656.53 2467.87 1652.91C2473.5 1649.16 2480.13 1647.28 2487.77 1647.28V1671H2481.94C2472.97 1671 2466.13 1673.28 2461.44 1677.83C2456.89 1682.39 2454.61 1690.29 2454.61 1701.55V1759.84H2431.69V1649.09H2454.61V1668.39Z" fill="#5A28C6"/>
<path d="M2550.64 1704.57L2601.7 1759.84H2570.74L2529.74 1712.2V1759.84H2506.82V1611.1H2529.74V1697.53L2569.94 1649.09H2601.7L2550.64 1704.57Z" fill="#5A28C6"/>
<path d="M2332.54 1474.78V1536.09C2332.54 1540.24 2333.48 1543.26 2335.35 1545.13C2337.36 1546.87 2340.71 1547.75 2345.4 1547.75H2359.47V1566.84H2341.38C2331.07 1566.84 2323.16 1564.43 2317.67 1559.6C2312.17 1554.78 2309.43 1546.94 2309.43 1536.09V1474.78H2296.36V1456.09H2309.43V1428.55H2332.54V1456.09H2381.58H2404.5V1566.84H2381.58V1474.78H2332.54Z" fill="#5A28C6"/>
<path d="M2096.63 1667.78V1729.09C2096.63 1733.24 2097.57 1736.26 2099.44 1738.13C2101.45 1739.87 2104.8 1740.75 2109.49 1740.75H2123.56V1759.84H2105.47C2095.16 1759.84 2087.25 1757.43 2081.76 1752.6C2076.26 1747.78 2073.51 1739.94 2073.51 1729.09V1667.78H2060.45V1649.09H2073.51V1621.55H2096.63V1649.09H2129.61H2152.92L2176.04 1738.13L2199.56 1649.09H2223.47L2245.99 1737.73L2268.9 1649.09H2291.41L2257.04 1759.84H2232.92L2210.61 1678.03L2188.3 1759.84H2164.18L2135.44 1667.78H2096.63Z" fill="#5A28C6"/>
<defs>
<linearGradient id="paint0_linear_233_125" x1="382.896" y1="579.07" x2="477.135" y2="474.119" gradientUnits="userSpaceOnUse">
<stop stop-color="#7F4CEE"/>
<stop offset="1" stop-color="#B897FF"/>
</linearGradient>
<linearGradient id="paint1_linear_233_125" x1="306.895" y1="445.07" x2="381.539" y2="309.006" gradientUnits="userSpaceOnUse">
<stop stop-color="#5A28C6"/>
<stop offset="1" stop-color="#8A5BED"/>
</linearGradient>
<linearGradient id="paint2_linear_233_125" x1="277.896" y1="435.07" x2="394.918" y2="334.27" gradientUnits="userSpaceOnUse">
<stop stop-color="#7F4CEE"/>
<stop offset="1" stop-color="#B897FF"/>
</linearGradient>
<linearGradient id="paint3_linear_233_125" x1="346.896" y1="185.07" x2="530.776" y2="68.5213" gradientUnits="userSpaceOnUse">
<stop stop-color="#7F4CEE"/>
<stop offset="1" stop-color="#B897FF"/>
</linearGradient>
<linearGradient id="paint4_linear_233_125" x1="326.895" y1="188.07" x2="346.687" y2="22.2176" gradientUnits="userSpaceOnUse">
<stop stop-color="#7F4CEE"/>
<stop offset="1" stop-color="#B897FF"/>
</linearGradient>
<linearGradient id="paint5_linear_233_125" x1="202.893" y1="345.07" x2="185.481" y2="212.865" gradientUnits="userSpaceOnUse">
<stop stop-color="#5A28C6"/>
<stop offset="1" stop-color="#8A5BED"/>
</linearGradient>
<linearGradient id="paint6_linear_233_125" x1="74.8965" y1="343.07" x2="108.425" y2="183.703" gradientUnits="userSpaceOnUse">
<stop stop-color="#5A28C6"/>
<stop offset="1" stop-color="#8A5BED"/>
</linearGradient>
<linearGradient id="paint7_linear_233_125" x1="374.896" y1="1806.07" x2="469.135" y2="1701.12" gradientUnits="userSpaceOnUse">
<stop stop-color="#7F4CEE"/>
<stop offset="1" stop-color="#B897FF"/>
</linearGradient>
<linearGradient id="paint8_linear_233_125" x1="298.895" y1="1672.07" x2="373.539" y2="1536.01" gradientUnits="userSpaceOnUse">
<stop stop-color="#5A28C6"/>
<stop offset="1" stop-color="#8A5BED"/>
</linearGradient>
<linearGradient id="paint9_linear_233_125" x1="303.546" y1="1473.05" x2="303.546" y2="1643.07" gradientUnits="userSpaceOnUse">
<stop stop-color="#FFCA7C"/>
<stop offset="1" stop-color="#D07D00"/>
</linearGradient>
<linearGradient id="paint10_linear_233_125" x1="338.896" y1="1412.07" x2="522.776" y2="1295.52" gradientUnits="userSpaceOnUse">
<stop stop-color="#7F4CEE"/>
<stop offset="1" stop-color="#B897FF"/>
</linearGradient>
<linearGradient id="paint11_linear_233_125" x1="318.895" y1="1415.07" x2="338.687" y2="1249.22" gradientUnits="userSpaceOnUse">
<stop stop-color="#7F4CEE"/>
<stop offset="1" stop-color="#B897FF"/>
</linearGradient>
<linearGradient id="paint12_linear_233_125" x1="194.893" y1="1572.07" x2="177.481" y2="1439.87" gradientUnits="userSpaceOnUse">
<stop stop-color="#5A28C6"/>
<stop offset="1" stop-color="#8A5BED"/>
</linearGradient>
<linearGradient id="paint13_linear_233_125" x1="66.8965" y1="1570.07" x2="100.425" y2="1410.7" gradientUnits="userSpaceOnUse">
<stop stop-color="#5A28C6"/>
<stop offset="1" stop-color="#8A5BED"/>
</linearGradient>
<linearGradient id="paint14_linear_233_125" x1="3095" y1="579.07" x2="3189.24" y2="474.119" gradientUnits="userSpaceOnUse">
<stop stop-color="#7F4CEE"/>
<stop offset="1" stop-color="#B897FF"/>
</linearGradient>
<linearGradient id="paint15_linear_233_125" x1="3019" y1="445.07" x2="3093.64" y2="309.006" gradientUnits="userSpaceOnUse">
<stop stop-color="#5A28C6"/>
<stop offset="1" stop-color="#8A5BED"/>
</linearGradient>
<linearGradient id="paint16_linear_233_125" x1="2990" y1="435.069" x2="3107.02" y2="334.269" gradientUnits="userSpaceOnUse">
<stop stop-color="#7F4CEE"/>
<stop offset="1" stop-color="#B897FF"/>
</linearGradient>
<linearGradient id="paint17_linear_233_125" x1="3059" y1="185.07" x2="3242.88" y2="68.5213" gradientUnits="userSpaceOnUse">
<stop stop-color="#7F4CEE"/>
<stop offset="1" stop-color="#B897FF"/>
</linearGradient>
<linearGradient id="paint18_linear_233_125" x1="3039" y1="188.07" x2="3058.79" y2="22.2176" gradientUnits="userSpaceOnUse">
<stop stop-color="#7F4CEE"/>
<stop offset="1" stop-color="#B897FF"/>
</linearGradient>
<linearGradient id="paint19_linear_233_125" x1="2915" y1="345.07" x2="2897.59" y2="212.865" gradientUnits="userSpaceOnUse">
<stop stop-color="#5A28C6"/>
<stop offset="1" stop-color="#8A5BED"/>
</linearGradient>
<linearGradient id="paint20_linear_233_125" x1="2787" y1="343.07" x2="2820.53" y2="183.703" gradientUnits="userSpaceOnUse">
<stop stop-color="#5A28C6"/>
<stop offset="1" stop-color="#8A5BED"/>
</linearGradient>
<linearGradient id="paint21_linear_233_125" x1="3094.9" y1="1806.07" x2="3189.13" y2="1701.12" gradientUnits="userSpaceOnUse">
<stop stop-color="#7F4CEE"/>
<stop offset="1" stop-color="#B897FF"/>
</linearGradient>
<linearGradient id="paint22_linear_233_125" x1="3018.89" y1="1672.07" x2="3093.54" y2="1536.01" gradientUnits="userSpaceOnUse">
<stop stop-color="#5A28C6"/>
<stop offset="1" stop-color="#8A5BED"/>
</linearGradient>
<linearGradient id="paint23_linear_233_125" x1="3023.55" y1="1473.05" x2="3023.55" y2="1643.07" gradientUnits="userSpaceOnUse">
<stop stop-color="#FFCA7C"/>
<stop offset="1" stop-color="#D07D00"/>
</linearGradient>
<linearGradient id="paint24_linear_233_125" x1="3058.9" y1="1412.07" x2="3242.78" y2="1295.52" gradientUnits="userSpaceOnUse">
<stop stop-color="#7F4CEE"/>
<stop offset="1" stop-color="#B897FF"/>
</linearGradient>
<linearGradient id="paint25_linear_233_125" x1="3038.89" y1="1415.07" x2="3058.69" y2="1249.22" gradientUnits="userSpaceOnUse">
<stop stop-color="#7F4CEE"/>
<stop offset="1" stop-color="#B897FF"/>
</linearGradient>
<linearGradient id="paint26_linear_233_125" x1="2914.89" y1="1572.07" x2="2897.48" y2="1439.87" gradientUnits="userSpaceOnUse">
<stop stop-color="#5A28C6"/>
<stop offset="1" stop-color="#8A5BED"/>
</linearGradient>
<linearGradient id="paint27_linear_233_125" x1="2786.9" y1="1570.07" x2="2820.42" y2="1410.7" gradientUnits="userSpaceOnUse">
<stop stop-color="#5A28C6"/>
<stop offset="1" stop-color="#8A5BED"/>
</linearGradient>
</defs>
</svg>
